<?xml version="1.0" encoding="UTF-8" ?>
<!DOCTYPE svg PUBLIC "-//W3C//DTD SVG 1.1//EN" "http://www.w3.org/Graphics/SVG/1.1/DTD/svg11.dtd">
<svg width="1024pt" height="1024pt" viewBox="0 0 1024 1024" version="1.1" xmlns="http://www.w3.org/2000/svg">
<g id="#fafafaff">
</g>
<g id="#410f64ff">
<path fill="#410f64" opacity="1.00" d=" M 399.97 192.51 C 473.23 166.13 555.48 165.53 629.06 191.03 C 625.65 194.01 621.22 195.76 618.61 199.63 C 617.11 199.88 615.62 200.12 614.14 200.36 C 614.05 205.19 613.62 210.05 614.24 214.85 C 615.70 218.84 620.51 217.96 623.86 218.22 C 624.17 222.78 624.14 227.35 623.86 231.91 C 618.63 232.11 613.40 231.92 608.17 232.13 C 607.81 237.06 608.31 242.01 607.84 246.93 C 604.98 248.89 600.64 250.10 599.96 254.03 C 598.81 258.85 604.86 259.13 607.90 260.73 C 607.33 261.55 606.77 262.36 606.21 263.18 C 609.33 265.31 612.88 266.67 615.99 268.81 C 615.85 270.57 615.74 272.34 615.63 274.10 C 609.49 271.79 603.41 269.33 597.27 267.03 C 593.73 266.06 590.05 265.66 586.62 264.32 C 581.47 262.40 575.93 262.03 570.72 260.32 C 567.62 259.26 564.31 259.25 561.14 258.57 C 558.36 257.97 555.92 256.02 553.01 256.11 C 544.64 256.68 536.35 254.97 527.99 255.01 C 521.67 255.07 515.35 255.01 509.03 255.03 C 497.11 254.93 485.28 256.49 473.43 257.42 C 473.39 258.03 473.30 259.26 473.26 259.87 C 427.25 267.30 383.49 287.90 348.13 318.21 C 327.91 335.61 310.24 356.02 296.34 378.81 C 294.41 374.62 298.40 370.97 300.81 368.03 C 298.76 366.64 295.81 365.36 296.21 362.38 C 297.25 362.77 298.28 363.17 299.31 363.58 C 298.76 359.61 299.93 355.78 301.23 352.08 C 296.90 351.99 292.58 351.99 288.26 351.80 C 288.10 349.22 287.94 346.64 287.79 344.07 C 285.34 343.97 282.89 343.98 280.44 344.09 C 280.13 345.33 279.81 346.58 279.50 347.83 C 278.00 346.57 276.58 345.18 274.87 344.23 C 271.37 343.69 267.81 343.96 264.29 343.83 C 264.16 341.61 264.03 339.40 263.88 337.19 C 261.75 335.31 259.71 333.33 257.72 331.31 C 254.66 331.82 251.56 332.02 248.47 331.93 C 248.18 330.81 247.91 329.69 247.63 328.58 C 245.15 327.52 242.78 326.20 240.20 325.42 C 239.20 325.82 238.63 326.81 237.90 327.54 C 235.61 327.31 233.33 327.59 231.16 328.31 C 230.86 327.98 230.27 327.32 229.97 326.99 C 270.10 265.37 330.66 217.20 399.97 192.51 Z" />
</g>
<g id="#451263ff">
<path fill="#451263" opacity="1.00" d=" M 629.06 191.03 C 689.57 211.93 743.53 250.75 783.61 300.56 C 782.85 301.24 782.10 301.92 781.36 302.61 C 780.62 301.34 779.88 300.09 779.16 298.83 C 778.77 299.23 778.01 300.03 777.63 300.43 C 777.12 300.04 776.62 299.66 776.13 299.27 C 776.29 301.52 776.78 303.87 776.05 306.08 C 775.15 308.11 773.58 309.73 772.22 311.45 C 772.83 311.71 774.06 312.25 774.67 312.52 C 772.87 314.83 771.09 317.16 769.32 319.49 C 769.95 319.76 771.20 320.31 771.83 320.58 C 770.55 322.04 769.14 323.42 768.15 325.10 C 767.65 328.55 767.94 332.05 767.85 335.53 C 766.62 335.80 765.41 336.08 764.20 336.36 C 764.03 338.72 763.86 341.09 763.70 343.46 C 762.54 343.77 761.39 344.10 760.25 344.43 C 760.03 346.77 760.06 349.19 759.42 351.48 C 757.49 354.38 755.38 357.30 752.69 359.54 C 750.04 360.02 747.34 360.00 744.67 360.22 C 743.78 362.35 743.08 364.75 741.16 366.22 C 738.85 367.94 736.10 368.91 733.54 370.18 C 734.56 372.71 735.78 375.22 737.72 377.19 C 737.19 377.93 736.69 378.71 736.19 379.48 C 719.51 351.92 697.65 327.48 671.88 308.13 C 657.07 296.87 640.86 287.52 624.01 279.69 C 622.35 276.43 618.90 275.12 615.63 274.10 C 615.74 272.34 615.85 270.57 615.99 268.81 C 612.88 266.67 609.33 265.31 606.21 263.18 C 606.77 262.36 607.33 261.55 607.90 260.73 C 604.86 259.13 598.81 258.85 599.96 254.03 C 600.64 250.10 604.98 248.89 607.84 246.93 C 608.31 242.01 607.81 237.06 608.17 232.13 C 613.40 231.92 618.63 232.11 623.86 231.91 C 624.14 227.35 624.17 222.78 623.86 218.22 C 620.51 217.96 615.70 218.84 614.24 214.85 C 613.62 210.05 614.05 205.19 614.14 200.36 C 615.62 200.12 617.11 199.88 618.61 199.63 C 621.22 195.76 625.65 194.01 629.06 191.03 Z" />
</g>
<g id="#330b51ff">
<path fill="#330b51" opacity="1.00" d=" M 473.43 257.42 C 485.28 256.49 497.11 254.93 509.03 255.03 C 515.35 255.01 521.67 255.07 527.99 255.01 C 536.35 254.97 544.64 256.68 553.01 256.11 C 555.92 256.02 558.36 257.97 561.14 258.57 C 564.31 259.25 567.62 259.26 570.72 260.32 C 575.93 262.03 581.47 262.40 586.62 264.32 C 590.05 265.66 593.73 266.06 597.27 267.03 C 603.41 269.33 609.49 271.79 615.63 274.10 C 618.90 275.12 622.35 276.43 624.01 279.69 C 605.09 271.38 585.37 264.69 565.02 260.98 C 534.78 255.42 503.61 254.79 473.26 259.87 C 473.30 259.26 473.39 258.03 473.43 257.42 Z" />
<path fill="#330b51" opacity="1.00" d=" M 269.55 432.55 C 269.88 432.64 270.53 432.82 270.86 432.91 C 268.35 440.06 266.52 447.41 264.66 454.74 C 263.29 446.92 267.25 439.75 269.55 432.55 Z" />
</g>
<g id="#4f1c6aff">
<path fill="#4f1c6a" opacity="1.00" d=" M 776.13 299.27 C 776.62 299.66 777.12 300.04 777.63 300.43 C 778.01 300.03 778.77 299.23 779.16 298.83 C 779.88 300.09 780.62 301.34 781.36 302.61 C 782.10 301.92 782.85 301.24 783.61 300.56 C 807.94 330.66 826.77 365.09 839.61 401.58 C 846.96 421.84 852.00 442.92 854.98 464.25 C 854.42 464.17 853.29 463.99 852.72 463.90 C 851.38 456.40 850.92 448.71 848.56 441.42 C 847.67 437.59 847.82 433.53 846.24 429.87 C 844.76 426.33 843.16 422.82 842.22 419.09 C 842.11 421.34 841.97 423.59 841.83 425.84 C 840.38 425.22 838.94 424.61 837.50 424.00 C 835.14 427.95 834.32 432.49 832.73 436.72 C 830.16 438.79 826.22 437.89 823.18 439.15 C 822.45 438.91 821.73 438.67 821.03 438.45 C 820.28 438.85 819.55 439.26 818.83 439.67 C 816.46 438.56 813.86 438.80 811.37 439.20 C 815.19 440.58 814.16 444.69 813.91 447.87 C 809.10 448.23 804.12 447.43 799.49 449.09 C 798.64 448.74 797.79 448.38 796.96 448.04 C 794.47 449.89 792.88 452.54 791.67 455.34 C 784.88 457.04 782.60 464.11 779.98 469.72 C 778.37 467.78 777.73 465.34 777.27 462.92 C 776.70 464.15 776.12 465.38 775.56 466.61 C 775.08 466.20 774.12 465.37 773.64 464.95 C 773.04 467.25 772.20 469.56 772.40 471.98 C 772.53 475.85 774.39 479.98 772.08 483.55 C 767.87 446.79 755.63 410.98 736.19 379.48 C 736.69 378.71 737.19 377.93 737.72 377.19 C 735.78 375.22 734.56 372.71 733.54 370.18 C 736.10 368.91 738.85 367.94 741.16 366.22 C 743.08 364.75 743.78 362.35 744.67 360.22 C 747.34 360.00 750.04 360.02 752.69 359.54 C 755.38 357.30 757.49 354.38 759.42 351.48 C 760.06 349.19 760.03 346.77 760.25 344.43 C 761.39 344.10 762.54 343.77 763.70 343.46 C 763.86 341.09 764.03 338.72 764.20 336.36 C 765.41 336.08 766.62 335.80 767.85 335.53 C 767.94 332.05 767.65 328.55 768.15 325.10 C 769.14 323.42 770.55 322.04 771.83 320.58 C 771.20 320.31 769.95 319.76 769.32 319.49 C 771.09 317.16 772.87 314.83 774.67 312.52 C 774.06 312.25 772.83 311.71 772.22 311.45 C 773.58 309.73 775.15 308.11 776.05 306.08 C 776.78 303.87 776.29 301.52 776.13 299.27 Z" />
</g>
<g id="#421260ff">
<path fill="#421260" opacity="1.00" d=" M 617.04 315.99 C 618.47 315.55 620.75 314.51 621.66 316.33 C 621.87 317.77 620.81 318.93 620.14 320.09 C 616.58 325.18 613.31 330.45 609.66 335.47 C 608.73 332.60 607.84 329.72 606.94 326.84 C 604.61 326.47 602.38 325.68 600.29 324.62 C 597.70 325.47 595.00 325.99 592.27 325.58 C 600.45 322.19 608.72 319.03 617.04 315.99 Z" />
</g>
<g id="#4b186bff">
<path fill="#4b186b" opacity="1.00" d=" M 600.29 324.62 C 602.38 325.68 604.61 326.47 606.94 326.84 C 607.84 329.72 608.73 332.60 609.66 335.47 L 609.69 335.57 C 592.12 361.99 574.87 388.62 556.85 414.74 C 556.76 414.17 556.58 413.01 556.48 412.44 C 558.72 409.21 561.43 405.97 561.74 401.89 C 560.76 402.52 559.79 403.17 558.83 403.83 C 555.23 400.63 556.18 395.47 555.89 391.17 C 551.10 388.45 546.24 385.80 541.03 383.95 C 538.50 383.13 536.17 381.67 534.61 379.49 C 533.04 377.79 532.00 375.25 529.62 374.57 C 526.56 373.70 523.31 373.27 520.60 371.47 C 517.96 369.53 514.37 370.52 511.65 368.81 C 514.58 368.17 517.46 367.18 519.42 364.77 C 517.43 363.34 515.26 362.19 513.01 361.25 C 513.90 360.09 514.80 358.93 515.70 357.77 C 515.56 357.45 515.27 356.83 515.12 356.51 C 512.58 356.97 509.29 359.89 507.18 357.28 C 529.03 348.79 551.08 340.82 573.00 332.53 C 579.46 330.31 585.76 327.60 592.27 325.58 C 595.00 325.99 597.70 325.47 600.29 324.62 Z" />
</g>
<g id="#4d186bff">
<path fill="#4d186b" opacity="1.00" d=" M 240.20 325.42 C 242.78 326.20 245.15 327.52 247.63 328.58 C 247.91 329.69 248.18 330.81 248.47 331.93 C 251.56 332.02 254.66 331.82 257.72 331.31 C 259.71 333.33 261.75 335.31 263.88 337.19 C 264.03 339.40 264.16 341.61 264.29 343.83 C 267.81 343.96 271.37 343.69 274.87 344.23 C 276.58 345.18 278.00 346.57 279.50 347.83 C 279.81 346.58 280.13 345.33 280.44 344.09 C 282.89 343.98 285.34 343.97 287.79 344.07 C 287.94 346.64 288.10 349.22 288.26 351.80 C 292.58 351.99 296.90 351.99 301.23 352.08 C 299.93 355.78 298.76 359.61 299.31 363.58 C 298.28 363.17 297.25 362.77 296.21 362.38 C 295.81 365.36 298.76 366.64 300.81 368.03 C 298.40 370.97 294.41 374.62 296.34 378.81 C 287.39 393.36 279.85 408.77 273.74 424.72 C 273.01 421.83 273.85 418.81 273.01 415.95 C 272.42 413.47 272.10 410.93 271.78 408.41 C 269.89 408.20 268.00 407.99 266.12 407.78 C 265.97 404.94 265.84 402.10 265.73 399.27 C 265.36 398.96 264.62 398.36 264.25 398.06 C 264.16 401.35 264.03 404.64 263.87 407.93 C 261.94 407.95 260.02 407.97 258.10 408.00 C 257.99 405.21 257.88 402.41 257.57 399.63 C 255.83 401.23 255.99 403.70 255.58 405.84 C 253.10 406.03 250.61 406.18 248.13 406.31 C 248.04 409.40 248.08 412.50 248.22 415.60 C 250.12 415.81 252.02 416.03 253.92 416.26 C 254.43 419.77 254.50 423.63 251.26 425.87 C 250.40 425.51 249.56 425.16 248.71 424.82 C 246.90 425.55 245.02 426.68 242.99 426.13 C 240.32 425.43 237.84 423.60 234.96 424.02 C 232.99 423.83 231.99 425.66 230.77 426.84 C 226.61 423.59 221.19 424.42 216.45 422.79 C 213.84 422.04 211.11 422.00 208.42 421.83 C 207.93 419.08 207.22 416.38 205.98 413.88 C 206.28 411.86 206.63 409.85 206.99 407.85 C 204.83 407.47 202.78 406.68 200.86 405.66 C 200.24 406.00 199.63 406.36 199.01 406.72 C 199.27 405.01 199.52 403.31 199.77 401.61 C 197.86 400.79 195.95 399.98 194.04 399.17 C 203.21 373.85 215.18 349.51 229.97 326.99 C 230.27 327.32 230.86 327.98 231.16 328.31 C 233.33 327.59 235.61 327.31 237.90 327.54 C 238.63 326.81 239.20 325.82 240.20 325.42 Z" />
</g>
<g id="#511b72ff">
<path fill="#511b72" opacity="1.00" d=" M 507.18 357.28 C 509.29 359.89 512.58 356.97 515.12 356.51 C 515.27 356.83 515.56 357.45 515.70 357.77 C 514.80 358.93 513.90 360.09 513.01 361.25 C 515.26 362.19 517.43 363.34 519.42 364.77 C 517.46 367.18 514.58 368.17 511.65 368.81 C 514.37 370.52 517.96 369.53 520.60 371.47 C 523.31 373.27 526.56 373.70 529.62 374.57 C 532.00 375.25 533.04 377.79 534.61 379.49 C 536.17 381.67 538.50 383.13 541.03 383.95 C 546.24 385.80 551.10 388.45 555.89 391.17 C 556.18 395.47 555.23 400.63 558.83 403.83 C 559.79 403.17 560.76 402.52 561.74 401.89 C 561.43 405.97 558.72 409.21 556.48 412.44 C 556.58 413.01 556.76 414.17 556.85 414.74 C 534.22 448.45 511.68 482.22 489.13 515.98 C 486.86 519.16 485.11 522.87 482.06 525.39 C 479.29 526.42 478.46 523.04 478.78 521.05 C 479.74 491.13 480.70 461.20 480.89 431.26 C 480.01 430.48 479.14 429.70 478.28 428.93 L 478.29 428.80 C 478.40 427.65 478.53 426.51 478.65 425.37 C 477.28 424.77 475.67 424.48 474.60 423.37 C 474.67 422.10 475.07 420.89 475.40 419.68 C 473.50 418.55 471.73 417.22 469.86 416.06 C 467.86 415.16 465.29 416.04 463.57 414.46 C 459.60 411.28 455.28 408.44 452.16 404.36 C 453.17 402.81 454.16 401.24 455.06 399.62 C 452.94 400.15 451.56 402.49 449.30 402.42 C 446.43 401.27 444.99 398.40 443.94 395.70 C 441.48 395.92 439.21 395.19 437.84 393.03 C 438.31 392.46 438.79 391.89 439.28 391.33 C 439.86 392.33 440.46 393.33 441.05 394.33 C 441.91 393.13 442.57 391.71 443.80 390.83 C 445.86 390.33 447.83 391.62 449.79 392.10 C 449.66 387.47 450.88 382.64 454.32 379.37 C 455.93 378.32 457.77 377.75 459.49 376.91 C 459.47 376.47 459.43 375.58 459.41 375.14 L 459.40 375.08 C 475.31 369.10 491.26 363.23 507.18 357.28 Z" />
</g>
<g id="#471869ff">
<path fill="#471869" opacity="1.00" d=" M 434.82 383.88 C 443.04 381.03 451.19 378.00 459.41 375.14 C 459.43 375.58 459.47 376.47 459.49 376.91 C 457.77 377.75 455.93 378.32 454.32 379.37 C 450.88 382.64 449.66 387.47 449.79 392.10 C 447.83 391.62 445.86 390.33 443.80 390.83 C 442.57 391.71 441.91 393.13 441.05 394.33 C 440.46 393.33 439.86 392.33 439.28 391.33 C 438.79 391.89 438.31 392.46 437.84 393.03 C 439.21 395.19 441.48 395.92 443.94 395.70 C 444.99 398.40 446.43 401.27 449.30 402.42 C 451.56 402.49 452.94 400.15 455.06 399.62 C 454.16 401.24 453.17 402.81 452.16 404.36 C 455.28 408.44 459.60 411.28 463.57 414.46 C 465.29 416.04 467.86 415.16 469.86 416.06 C 471.73 417.22 473.50 418.55 475.40 419.68 C 475.07 420.89 474.67 422.10 474.60 423.37 C 475.67 424.48 477.28 424.77 478.65 425.37 C 478.53 426.51 478.40 427.65 478.29 428.80 C 463.25 416.86 448.53 404.51 433.77 392.23 C 432.32 390.80 430.03 389.41 430.26 387.08 C 430.74 385.02 433.18 384.65 434.82 383.88 Z" />
</g>
<g id="#572075ff">
<path fill="#572075" opacity="1.00" d=" M 264.25 398.06 C 264.62 398.36 265.36 398.96 265.73 399.27 C 265.84 402.10 265.97 404.94 266.12 407.78 C 268.00 407.99 269.89 408.20 271.78 408.41 C 272.10 410.93 272.42 413.47 273.01 415.95 C 273.85 418.81 273.01 421.83 273.74 424.72 C 272.82 427.46 271.85 430.19 270.86 432.91 C 270.53 432.82 269.88 432.64 269.55 432.55 C 267.25 439.75 263.29 446.92 264.66 454.74 C 258.19 483.14 256.50 512.62 259.75 541.57 C 255.87 540.30 256.60 535.70 255.24 532.65 C 253.18 531.41 250.65 532.08 248.38 532.05 C 248.10 533.33 247.81 534.63 247.52 535.93 C 245.03 533.58 243.30 530.51 240.67 528.34 C 238.08 527.51 235.32 527.94 232.67 528.11 C 232.13 532.48 227.53 533.24 224.74 535.70 C 223.46 538.15 224.00 541.14 223.75 543.83 C 221.35 543.86 218.96 543.85 216.56 543.81 C 216.31 543.20 215.79 541.99 215.53 541.39 C 213.24 542.47 210.94 543.51 208.64 544.57 C 207.43 548.47 204.46 551.52 200.48 552.60 C 200.14 553.88 199.80 555.17 199.48 556.48 C 196.39 558.58 192.65 559.12 189.25 560.25 C 187.89 564.94 183.67 568.11 182.80 572.95 C 182.42 575.01 181.11 577.07 181.80 579.20 C 183.82 586.06 184.26 593.26 186.25 600.15 C 185.99 600.55 185.48 601.36 185.22 601.76 C 167.41 535.47 170.37 463.65 194.04 399.17 C 195.95 399.98 197.86 400.79 199.77 401.61 C 199.52 403.31 199.27 405.01 199.01 406.72 C 199.63 406.36 200.24 406.00 200.86 405.66 C 202.78 406.68 204.83 407.47 206.99 407.85 C 206.63 409.85 206.28 411.86 205.98 413.88 C 207.22 416.38 207.93 419.08 208.42 421.83 C 211.11 422.00 213.84 422.04 216.45 422.79 C 221.19 424.42 226.61 423.59 230.77 426.84 C 231.99 425.66 232.99 423.83 234.96 424.02 C 237.84 423.60 240.32 425.43 242.99 426.13 C 245.02 426.68 246.90 425.55 248.71 424.82 C 249.56 425.16 250.40 425.51 251.26 425.87 C 254.50 423.63 254.43 419.77 253.92 416.26 C 252.02 416.03 250.12 415.81 248.22 415.60 C 248.08 412.50 248.04 409.40 248.13 406.31 C 250.61 406.18 253.10 406.03 255.58 405.84 C 255.99 403.70 255.83 401.23 257.57 399.63 C 257.88 402.41 257.99 405.21 258.10 408.00 C 260.02 407.97 261.94 407.95 263.87 407.93 C 264.03 404.64 264.16 401.35 264.25 398.06 Z" />
</g>
<g id="#582275ff">
<path fill="#582275" opacity="1.00" d=" M 842.22 419.09 C 843.16 422.82 844.76 426.33 846.24 429.87 C 847.82 433.53 847.67 437.59 848.56 441.42 C 850.92 448.71 851.38 456.40 852.72 463.90 C 853.29 463.99 854.42 464.17 854.98 464.25 C 859.89 498.83 859.69 534.20 853.97 568.67 C 852.16 565.83 852.40 562.46 852.54 559.27 C 850.09 559.28 847.65 559.45 845.26 559.90 C 843.93 558.98 842.61 558.07 841.31 557.15 C 840.61 557.56 839.92 557.98 839.24 558.41 C 832.24 554.52 824.01 556.30 816.39 556.21 C 816.10 557.38 815.82 558.57 815.54 559.76 C 812.09 559.74 808.58 559.84 805.31 561.03 C 800.46 559.78 795.43 560.05 790.48 560.01 C 792.78 564.38 791.69 569.35 792.05 574.06 C 792.13 576.37 795.08 577.12 795.66 579.21 C 794.76 579.88 793.86 580.53 792.95 581.16 C 793.90 582.07 794.86 582.98 795.83 583.89 C 794.59 583.76 793.37 583.64 792.16 583.51 C 792.04 585.92 791.92 588.33 791.82 590.75 C 787.78 588.94 783.62 587.38 779.72 585.28 C 775.88 583.19 772.77 580.05 769.77 576.94 C 769.25 577.02 768.23 577.16 767.71 577.23 C 767.19 578.57 766.56 579.87 766.03 581.22 C 765.86 580.37 765.53 578.68 765.36 577.84 C 773.23 547.15 775.46 515.05 772.08 483.55 C 774.39 479.98 772.53 475.85 772.40 471.98 C 772.20 469.56 773.04 467.25 773.64 464.95 C 774.12 465.37 775.08 466.20 775.56 466.61 C 776.12 465.38 776.70 464.15 777.27 462.92 C 777.73 465.34 778.37 467.78 779.98 469.72 C 782.60 464.11 784.88 457.04 791.67 455.34 C 792.88 452.54 794.47 449.89 796.96 448.04 C 797.79 448.38 798.64 448.74 799.49 449.09 C 804.12 447.43 809.10 448.23 813.91 447.87 C 814.16 444.69 815.19 440.58 811.37 439.20 C 813.86 438.80 816.46 438.56 818.83 439.67 C 819.55 439.26 820.28 438.85 821.03 438.45 C 821.73 438.67 822.45 438.91 823.18 439.15 C 826.22 437.89 830.16 438.79 832.73 436.72 C 834.32 432.49 835.14 427.95 837.50 424.00 C 838.94 424.61 840.38 425.22 841.83 425.84 C 841.97 423.59 842.11 421.34 842.22 419.09 Z" />
</g>
<g id="#5a277bff">
<path fill="#5a277b" opacity="1.00" d=" M 550.70 499.81 C 551.78 498.39 552.87 496.02 555.02 496.40 C 557.79 497.38 556.61 500.78 556.82 502.99 C 555.72 528.20 555.09 553.44 553.88 578.64 C 551.97 573.97 552.81 568.86 552.72 563.96 C 552.96 557.60 551.72 551.32 551.55 544.99 C 550.98 549.18 550.40 553.41 548.83 557.37 C 547.11 555.06 546.76 552.21 546.67 549.42 C 546.21 549.79 545.76 550.16 545.31 550.54 C 544.76 549.15 544.22 547.76 543.68 546.37 C 541.26 546.20 538.75 546.39 536.42 545.63 C 534.32 542.78 533.61 539.19 531.71 536.23 C 529.73 535.72 528.55 537.69 527.14 538.69 C 528.60 539.88 530.06 541.07 531.53 542.27 C 530.19 544.58 528.75 546.84 527.14 548.98 C 526.86 547.69 526.58 546.39 526.33 545.11 C 525.34 545.13 524.35 545.17 523.37 545.23 C 522.98 546.82 522.60 548.44 522.20 550.04 C 519.86 550.21 518.39 551.61 518.33 553.99 C 516.60 555.47 516.08 557.72 515.46 559.82 C 514.42 559.31 513.37 558.80 512.35 558.32 C 525.18 538.84 538.30 519.56 550.70 499.81 Z" />
</g>
<g id="#612780ff">
<path fill="#612780" opacity="1.00" d=" M 232.67 528.11 C 235.32 527.94 238.08 527.51 240.67 528.34 C 243.30 530.51 245.03 533.58 247.52 535.93 C 247.81 534.63 248.10 533.33 248.38 532.05 C 250.65 532.08 253.18 531.41 255.24 532.65 C 256.60 535.70 255.87 540.30 259.75 541.57 C 261.48 555.25 264.05 568.82 267.62 582.15 C 266.89 581.93 265.45 581.50 264.72 581.28 C 264.12 579.74 263.51 578.21 262.93 576.68 C 262.56 578.90 262.52 581.31 261.31 583.29 C 260.37 584.97 258.35 584.33 256.81 584.32 C 252.73 583.78 249.59 587.17 246.87 589.72 C 244.74 588.00 242.93 585.93 241.36 583.70 C 244.25 578.96 244.54 573.38 243.83 568.02 C 241.01 567.67 238.28 568.35 235.89 569.88 C 232.45 572.02 228.31 572.00 224.40 572.31 C 224.11 573.46 223.83 574.61 223.54 575.78 C 220.59 576.23 217.52 576.27 214.93 574.57 C 214.69 575.49 214.42 576.40 214.19 577.33 C 209.45 579.75 204.71 582.24 200.43 585.42 C 198.37 586.83 198.17 589.49 197.45 591.67 C 194.41 591.94 191.38 592.23 188.35 592.55 C 188.01 595.15 187.93 597.97 186.25 600.15 C 184.26 593.26 183.82 586.06 181.80 579.20 C 181.11 577.07 182.42 575.01 182.80 572.95 C 183.67 568.11 187.89 564.94 189.25 560.25 C 192.65 559.12 196.39 558.58 199.48 556.48 C 199.80 555.17 200.14 553.88 200.48 552.60 C 204.46 551.52 207.43 548.47 208.64 544.57 C 210.94 543.51 213.24 542.47 215.53 541.39 C 215.79 541.99 216.31 543.20 216.56 543.81 C 218.96 543.85 221.35 543.86 223.75 543.83 C 224.00 541.14 223.46 538.15 224.74 535.70 C 227.53 533.24 232.13 532.48 232.67 528.11 Z" />
</g>
<g id="#662e89ff">
<path fill="#662e89" opacity="1.00" d=" M 527.14 538.69 C 528.55 537.69 529.73 535.72 531.71 536.23 C 533.61 539.19 534.32 542.78 536.42 545.63 C 538.75 546.39 541.26 546.20 543.68 546.37 C 544.22 547.76 544.76 549.15 545.31 550.54 C 545.76 550.16 546.21 549.79 546.67 549.42 C 546.76 552.21 547.11 555.06 548.83 557.37 C 550.40 553.41 550.98 549.18 551.55 544.99 C 551.72 551.32 552.96 557.60 552.72 563.96 C 552.81 568.86 551.97 573.97 553.88 578.64 C 554.56 582.88 552.99 587.30 554.30 591.50 C 552.58 591.78 550.87 592.07 549.16 592.36 C 549.73 594.20 550.32 596.04 550.90 597.89 C 549.04 597.28 547.19 596.71 545.34 596.11 C 543.86 597.42 542.31 598.66 540.94 600.09 C 539.09 602.20 538.90 605.59 536.73 607.35 C 528.45 608.74 519.96 607.74 511.61 607.61 C 508.79 607.71 506.63 605.59 504.03 604.88 C 501.79 605.38 499.87 606.72 497.90 607.83 C 497.32 607.00 496.75 606.20 496.19 605.39 C 495.52 605.39 494.87 605.39 494.22 605.40 C 496.16 608.20 496.19 611.59 495.82 614.87 C 492.30 615.01 488.78 614.97 485.27 614.77 C 484.98 614.45 484.39 613.80 484.09 613.48 C 487.78 612.51 491.48 611.56 495.12 610.41 C 490.41 609.85 485.66 609.89 480.97 609.18 C 479.09 611.50 477.42 613.98 475.59 616.35 C 475.06 616.45 474.00 616.65 473.48 616.76 C 486.28 597.18 499.46 577.84 512.35 558.32 C 513.37 558.80 514.42 559.31 515.46 559.82 C 516.08 557.72 516.60 555.47 518.33 553.99 C 518.39 551.61 519.86 550.21 522.20 550.04 C 522.60 548.44 522.98 546.82 523.37 545.23 C 524.35 545.17 525.34 545.13 526.33 545.11 C 526.58 546.39 526.86 547.69 527.14 548.98 C 528.75 546.84 530.19 544.58 531.53 542.27 C 530.06 541.07 528.60 539.88 527.14 538.69 Z" />
</g>
<g id="#622a81ff">
<path fill="#622a81" opacity="1.00" d=" M 816.39 556.21 C 824.01 556.30 832.24 554.52 839.24 558.41 C 839.92 557.98 840.61 557.56 841.31 557.15 C 842.61 558.07 843.93 558.98 845.26 559.90 C 847.65 559.45 850.09 559.28 852.54 559.27 C 852.40 562.46 852.16 565.83 853.97 568.67 C 849.50 596.92 841.26 624.59 829.78 650.78 C 829.28 649.77 828.85 648.75 828.48 647.71 C 829.01 646.30 829.95 645.10 830.76 643.84 C 830.02 643.53 829.33 643.17 828.62 642.87 C 828.23 640.20 826.94 637.81 825.44 635.61 C 823.04 635.08 820.63 634.46 818.61 633.03 C 819.72 630.06 817.67 627.34 816.41 624.81 C 816.13 628.50 816.00 632.21 815.87 635.91 C 810.66 636.24 805.43 636.20 800.22 635.90 C 800.03 633.75 799.85 631.61 799.67 629.47 C 797.75 627.79 796.17 625.59 793.91 624.39 C 790.75 624.50 787.63 625.12 784.49 625.41 C 784.10 626.80 783.72 628.20 783.35 629.61 C 779.81 629.99 776.19 629.97 772.78 631.08 C 774.18 631.57 775.59 632.02 777.02 632.50 C 775.28 635.41 771.93 636.49 769.22 638.23 C 763.67 642.25 756.21 638.24 750.52 642.09 C 748.24 639.62 750.69 637.28 752.13 635.19 C 749.10 635.18 748.15 638.52 746.58 640.51 C 744.95 643.62 741.12 644.33 739.05 647.01 C 736.33 650.34 734.16 654.09 732.11 657.87 C 733.08 659.02 734.05 660.18 735.03 661.34 C 734.56 662.09 734.06 662.84 733.56 663.57 C 732.23 663.45 730.96 663.08 729.69 662.77 C 728.03 663.25 726.38 663.77 724.73 664.29 C 743.55 638.37 757.34 608.85 765.36 577.84 C 765.53 578.68 765.86 580.37 766.03 581.22 C 766.56 579.87 767.19 578.57 767.71 577.23 C 768.23 577.16 769.25 577.02 769.77 576.94 C 772.77 580.05 775.88 583.19 779.72 585.28 C 783.62 587.38 787.78 588.94 791.82 590.75 C 791.92 588.33 792.04 585.92 792.16 583.51 C 793.37 583.64 794.59 583.76 795.83 583.89 C 794.86 582.98 793.90 582.07 792.95 581.16 C 793.86 580.53 794.76 579.88 795.66 579.21 C 795.08 577.12 792.13 576.37 792.05 574.06 C 791.69 569.35 792.78 564.38 790.48 560.01 C 795.43 560.05 800.46 559.78 805.31 561.03 C 808.58 559.84 812.09 559.74 815.54 559.76 C 815.82 558.57 816.10 557.38 816.39 556.21 Z" />
</g>
<g id="#682c88ff">
<path fill="#682c88" opacity="1.00" d=" M 235.89 569.88 C 238.28 568.35 241.01 567.67 243.83 568.02 C 244.54 573.38 244.25 578.96 241.36 583.70 C 242.93 585.93 244.74 588.00 246.87 589.72 C 249.59 587.17 252.73 583.78 256.81 584.32 C 258.35 584.33 260.37 584.97 261.31 583.29 C 262.52 581.31 262.56 578.90 262.93 576.68 C 263.51 578.21 264.12 579.74 264.72 581.28 C 265.45 581.50 266.89 581.93 267.62 582.15 C 272.99 601.70 281.29 620.32 290.92 638.12 C 286.80 636.38 285.89 631.58 283.78 628.09 C 282.81 629.01 281.83 629.93 280.85 630.85 C 280.39 629.52 279.93 628.19 279.47 626.86 C 278.95 627.29 277.92 628.13 277.40 628.55 C 277.19 628.41 276.77 628.12 276.56 627.98 C 276.81 626.46 277.13 624.98 277.31 623.46 C 274.97 624.94 274.02 627.47 273.51 630.08 C 272.30 630.97 271.07 631.83 269.84 632.70 C 268.08 632.67 265.55 631.38 264.56 633.50 C 260.67 639.09 254.45 642.32 248.82 645.85 C 247.28 648.68 247.51 652.05 247.42 655.17 C 242.22 657.74 238.59 662.56 234.71 666.70 C 233.54 673.66 229.65 679.75 224.63 684.60 C 222.82 685.78 224.06 687.75 224.66 689.27 C 226.53 693.33 230.34 696.68 230.42 701.42 C 229.14 704.87 227.54 708.22 226.74 711.84 C 226.32 713.24 225.86 714.63 225.40 716.04 C 225.24 714.99 225.10 713.95 224.98 712.92 C 225.79 708.18 227.19 703.58 228.57 698.99 C 219.34 684.31 210.58 669.28 203.51 653.41 C 195.91 636.78 189.92 619.43 185.22 601.76 C 185.48 601.36 185.99 600.55 186.25 600.15 C 187.93 597.97 188.01 595.15 188.35 592.55 C 191.38 592.23 194.41 591.94 197.45 591.67 C 198.17 589.49 198.37 586.83 200.43 585.42 C 204.71 582.24 209.45 579.75 214.19 577.33 C 214.42 576.40 214.69 575.49 214.93 574.57 C 217.52 576.27 220.59 576.23 223.54 575.78 C 223.83 574.61 224.11 573.46 224.40 572.31 C 228.31 572.00 232.45 572.02 235.89 569.88 Z" />
</g>
<g id="#6e3493ff">
<path fill="#6e3493" opacity="1.00" d=" M 549.16 592.36 C 550.87 592.07 552.58 591.78 554.30 591.50 C 569.97 603.83 585.22 616.69 600.71 629.25 C 603.38 631.55 606.30 633.62 608.62 636.29 C 610.05 638.68 606.85 639.68 605.19 640.29 C 562.35 655.64 519.66 671.36 476.94 687.03 C 464.19 691.80 451.37 696.39 438.53 700.88 C 435.92 700.49 433.45 699.50 431.36 697.91 C 430.48 697.77 429.60 697.65 428.74 697.55 C 427.74 696.17 426.75 694.79 425.77 693.41 C 426.23 691.38 426.55 689.32 426.84 687.27 C 431.67 679.13 437.00 671.22 442.24 663.31 C 452.64 647.84 462.68 632.14 473.26 616.80 L 473.48 616.76 C 474.00 616.65 475.06 616.45 475.59 616.35 C 477.42 613.98 479.09 611.50 480.97 609.18 C 485.66 609.89 490.41 609.85 495.12 610.41 C 491.48 611.56 487.78 612.51 484.09 613.48 C 484.39 613.80 484.98 614.45 485.27 614.77 C 488.78 614.97 492.30 615.01 495.82 614.87 C 496.19 611.59 496.16 608.20 494.22 605.40 C 494.87 605.39 495.52 605.39 496.19 605.39 C 496.75 606.20 497.32 607.00 497.90 607.83 C 499.87 606.72 501.79 605.38 504.03 604.88 C 506.63 605.59 508.79 607.71 511.61 607.61 C 519.96 607.74 528.45 608.74 536.73 607.35 C 538.90 605.59 539.09 602.20 540.94 600.09 C 542.31 598.66 543.86 597.42 545.34 596.11 C 547.19 596.71 549.04 597.28 550.90 597.89 C 550.32 596.04 549.73 594.20 549.16 592.36 Z" />
</g>
<g id="#753598ff">
<path fill="#753598" opacity="1.00" d=" M 273.51 630.08 C 274.02 627.47 274.97 624.94 277.31 623.46 C 277.13 624.98 276.81 626.46 276.56 627.98 C 276.77 628.12 277.19 628.41 277.40 628.55 C 277.92 628.13 278.95 627.29 279.47 626.86 C 279.93 628.19 280.39 629.52 280.85 630.85 C 281.83 629.93 282.81 629.01 283.78 628.09 C 285.89 631.58 286.80 636.38 290.92 638.12 C 303.64 660.39 319.21 681.07 337.77 698.81 C 335.81 699.48 333.84 700.15 331.89 700.83 C 331.39 699.94 330.89 699.05 330.39 698.17 C 331.16 697.59 331.94 697.02 332.72 696.46 C 331.05 695.29 329.47 693.40 327.26 693.51 C 324.88 693.93 322.71 695.06 320.50 695.99 C 320.59 695.15 320.68 694.33 320.78 693.51 C 314.30 694.49 307.76 693.78 301.25 694.12 C 301.01 694.46 300.52 695.14 300.28 695.49 C 300.94 695.78 302.25 696.36 302.90 696.65 C 300.82 697.95 298.71 699.20 296.56 700.40 C 296.20 701.51 295.85 702.63 295.50 703.76 C 288.70 705.07 281.83 703.23 274.99 703.88 C 270.68 704.35 266.34 703.81 262.03 704.19 C 256.95 706.41 252.03 709.50 246.32 709.68 C 244.30 709.50 244.48 711.87 244.05 713.19 C 241.19 712.94 239.92 710.75 239.31 708.18 C 238.65 709.42 237.98 710.65 237.31 711.90 C 236.17 709.82 235.05 707.73 233.93 705.65 C 233.16 707.23 232.39 708.80 231.62 710.39 C 231.08 710.02 230.54 709.67 230.00 709.32 C 228.91 710.16 227.82 711.00 226.74 711.84 C 227.54 708.22 229.14 704.87 230.42 701.42 C 230.34 696.68 226.53 693.33 224.66 689.27 C 224.06 687.75 222.82 685.78 224.63 684.60 C 229.65 679.75 233.54 673.66 234.71 666.70 C 238.59 662.56 242.22 657.74 247.42 655.17 C 247.51 652.05 247.28 648.68 248.82 645.85 C 254.45 642.32 260.67 639.09 264.56 633.50 C 265.55 631.38 268.08 632.67 269.84 632.70 C 271.07 631.83 272.30 630.97 273.51 630.08 Z" />
</g>
<g id="#6d318fff">
<path fill="#6d318f" opacity="1.00" d=" M 784.49 625.41 C 787.63 625.12 790.75 624.50 793.91 624.39 C 796.17 625.59 797.75 627.79 799.67 629.47 C 799.85 631.61 800.03 633.75 800.22 635.90 C 805.43 636.20 810.66 636.24 815.87 635.91 C 816.00 632.21 816.13 628.50 816.41 624.81 C 817.67 627.34 819.72 630.06 818.61 633.03 C 820.63 634.46 823.04 635.08 825.44 635.61 C 826.94 637.81 828.23 640.20 828.62 642.87 C 829.33 643.17 830.02 643.53 830.76 643.84 C 829.95 645.10 829.01 646.30 828.48 647.71 C 828.85 648.75 829.28 649.77 829.78 650.78 C 816.60 680.30 799.19 707.96 778.37 732.67 C 777.17 733.00 775.97 733.29 774.77 733.59 C 776.56 731.40 778.28 729.16 779.93 726.87 C 779.64 726.40 779.06 725.47 778.77 725.01 C 776.03 727.69 774.39 731.18 772.17 734.25 C 771.53 731.14 770.81 728.05 770.17 724.94 C 769.66 725.00 768.65 725.12 768.15 725.18 C 767.28 728.82 766.75 732.54 765.72 736.15 C 765.23 733.52 765.03 730.86 764.63 728.23 C 764.31 728.23 763.66 728.23 763.34 728.23 C 762.89 730.91 763.00 733.69 762.32 736.34 C 760.83 737.91 758.44 738.36 757.10 740.13 C 755.61 741.97 754.42 744.01 753.09 745.96 C 752.73 744.68 751.83 743.47 752.06 742.11 C 753.76 738.58 757.18 736.31 760.90 735.36 C 761.03 732.86 760.99 730.36 760.77 727.87 C 760.31 729.20 759.87 730.53 759.46 731.89 C 756.05 731.95 752.44 732.22 749.31 730.63 C 747.38 729.48 745.95 727.71 744.40 726.14 C 744.08 727.38 743.77 728.64 743.47 729.90 C 741.05 729.95 738.64 729.95 736.24 729.91 C 736.15 726.62 735.99 723.34 735.79 720.06 C 730.80 720.09 725.78 720.54 720.84 719.60 C 718.49 715.43 713.18 715.05 709.02 713.94 C 703.92 712.43 702.53 719.29 698.01 719.82 C 695.11 720.18 692.18 719.92 689.27 719.81 C 688.51 718.46 687.74 717.11 686.99 715.77 C 686.29 717.05 685.60 718.34 684.92 719.63 C 683.30 718.35 681.75 716.96 679.92 716.01 C 677.59 715.47 676.40 717.64 676.00 719.54 C 673.99 720.36 670.80 720.55 671.20 723.47 C 667.75 722.95 665.13 725.48 662.57 727.35 C 662.51 728.42 662.45 729.49 662.40 730.57 C 658.22 730.87 654.09 731.87 650.86 734.70 C 647.16 736.59 643.67 740.59 639.18 739.55 C 672.91 721.32 702.21 695.27 724.73 664.29 C 726.38 663.77 728.03 663.25 729.69 662.77 C 730.96 663.08 732.23 663.45 733.56 663.57 C 734.06 662.84 734.56 662.09 735.03 661.34 C 734.05 660.18 733.08 659.02 732.11 657.87 C 734.16 654.09 736.33 650.34 739.05 647.01 C 741.12 644.33 744.95 643.62 746.58 640.51 C 748.15 638.52 749.10 635.18 752.13 635.19 C 750.69 637.28 748.24 639.62 750.52 642.09 C 756.21 638.24 763.67 642.25 769.22 638.23 C 771.93 636.49 775.28 635.41 777.02 632.50 C 775.59 632.02 774.18 631.57 772.78 631.08 C 776.19 629.97 779.81 629.99 783.35 629.61 C 783.72 628.20 784.10 626.80 784.49 625.41 Z" />
</g>
<g id="#68328cff">
<path fill="#68328c" opacity="1.00" d=" M 416.21 703.28 C 419.76 697.95 422.85 692.29 426.84 687.27 C 426.55 689.32 426.23 691.38 425.77 693.41 C 426.75 694.79 427.74 696.17 428.74 697.55 C 429.60 697.65 430.48 697.77 431.36 697.91 C 433.45 699.50 435.92 700.49 438.53 700.88 C 430.98 703.93 423.30 706.62 415.70 709.54 C 412.69 708.04 414.99 705.22 416.21 703.28 Z" />
</g>
<g id="#8139a5ff">
<path fill="#8139a5" opacity="1.00" d=" M 301.25 694.12 C 307.76 693.78 314.30 694.49 320.78 693.51 C 320.68 694.33 320.59 695.15 320.50 695.99 C 322.71 695.06 324.88 693.93 327.26 693.51 C 329.47 693.40 331.05 695.29 332.72 696.46 C 331.94 697.02 331.16 697.59 330.39 698.17 C 330.89 699.05 331.39 699.94 331.89 700.83 C 333.84 700.15 335.81 699.48 337.77 698.81 C 350.44 711.30 364.74 722.00 379.66 731.64 C 376.94 732.13 374.71 730.31 372.24 729.57 C 371.08 730.14 370.05 730.93 368.97 731.64 C 365.31 730.05 361.31 730.56 357.45 730.52 C 355.98 731.67 354.49 732.81 352.99 733.91 C 351.60 731.75 350.46 729.06 347.86 728.11 C 344.58 726.78 341.35 725.20 337.89 724.40 C 334.81 725.56 331.59 726.10 328.34 726.52 C 326.23 727.99 325.12 730.49 323.29 732.27 C 321.93 733.97 319.52 733.21 317.66 733.74 C 316.57 734.38 315.99 735.58 315.18 736.52 C 313.17 736.31 311.16 735.90 309.14 736.12 C 306.45 738.09 303.97 740.38 301.04 742.02 C 299.39 740.48 297.75 738.94 296.19 737.33 C 296.29 739.03 296.39 740.74 296.37 742.46 C 295.36 741.09 294.40 739.70 293.43 738.32 C 292.42 739.47 291.42 740.62 290.42 741.77 C 289.90 740.72 289.37 739.68 288.86 738.65 C 287.89 739.09 286.93 739.54 285.94 739.92 C 283.70 739.01 281.90 737.33 279.98 735.93 C 278.98 736.47 277.99 737.02 277.00 737.57 C 272.89 735.22 268.18 736.12 263.71 736.22 C 261.37 735.49 259.65 733.31 257.15 732.97 C 256.52 733.80 255.95 734.68 255.38 735.57 C 255.24 732.31 252.84 730.03 249.59 730.25 C 249.24 729.75 248.90 729.26 248.56 728.78 C 244.35 731.40 238.20 730.14 235.13 734.47 C 233.15 735.13 231.15 735.74 229.14 736.31 C 228.82 739.19 228.42 742.32 230.39 744.75 C 228.34 744.93 226.31 745.27 224.34 745.86 C 225.83 746.46 227.34 747.06 228.85 747.64 C 226.74 748.13 224.65 748.66 222.56 749.24 C 222.43 752.43 221.15 755.37 219.31 757.94 C 218.10 757.25 216.90 756.57 215.70 755.89 C 214.96 759.13 214.26 762.40 213.25 765.58 C 211.02 773.67 208.84 781.78 206.88 789.95 C 206.63 791.58 205.22 792.58 204.21 793.76 C 206.75 781.41 210.57 769.35 213.44 757.07 C 217.36 742.37 220.76 727.52 224.98 712.92 C 225.10 713.95 225.24 714.99 225.40 716.04 C 225.86 714.63 226.32 713.24 226.74 711.84 C 227.82 711.00 228.91 710.16 230.00 709.32 C 230.54 709.67 231.08 710.02 231.62 710.39 C 232.39 708.80 233.16 707.23 233.93 705.65 C 235.05 707.73 236.17 709.82 237.31 711.90 C 237.98 710.65 238.65 709.42 239.31 708.18 C 239.92 710.75 241.19 712.94 244.05 713.19 C 244.48 711.87 244.30 709.50 246.32 709.68 C 252.03 709.50 256.95 706.41 262.03 704.19 C 266.34 703.81 270.68 704.35 274.99 703.88 C 281.83 703.23 288.70 705.07 295.50 703.76 C 295.85 702.63 296.20 701.51 296.56 700.40 C 298.71 699.20 300.82 697.95 302.90 696.65 C 302.25 696.36 300.94 695.78 300.28 695.49 C 300.52 695.14 301.01 694.46 301.25 694.12 Z" />
</g>
<g id="#763599ff">
<path fill="#763599" opacity="1.00" d=" M 698.01 719.82 C 702.53 719.29 703.92 712.43 709.02 713.94 C 713.18 715.05 718.49 715.43 720.84 719.60 C 725.78 720.54 730.80 720.09 735.79 720.06 C 735.99 723.34 736.15 726.62 736.24 729.91 C 738.64 729.95 741.05 729.95 743.47 729.90 C 743.77 728.64 744.08 727.38 744.40 726.14 C 745.95 727.71 747.38 729.48 749.31 730.63 C 752.44 732.22 756.05 731.95 759.46 731.89 C 759.87 730.53 760.31 729.20 760.77 727.87 C 760.99 730.36 761.03 732.86 760.90 735.36 C 757.18 736.31 753.76 738.58 752.06 742.11 C 751.83 743.47 752.73 744.68 753.09 745.96 C 754.42 744.01 755.61 741.97 757.10 740.13 C 758.44 738.36 760.83 737.91 762.32 736.34 C 763.00 733.69 762.89 730.91 763.34 728.23 C 763.66 728.23 764.31 728.23 764.63 728.23 C 765.03 730.86 765.23 733.52 765.72 736.15 C 766.75 732.54 767.28 728.82 768.15 725.18 C 768.65 725.12 769.66 725.00 770.17 724.94 C 770.81 728.05 771.53 731.14 772.17 734.25 C 774.39 731.18 776.03 727.69 778.77 725.01 C 779.06 725.47 779.64 726.40 779.93 726.87 C 778.28 729.16 776.56 731.40 774.77 733.59 C 775.97 733.29 777.17 733.00 778.37 732.67 C 763.56 750.70 746.68 766.98 728.56 781.66 C 720.66 788.02 712.60 794.23 704.02 799.66 C 703.45 796.11 706.71 794.45 708.98 792.52 C 707.71 792.20 706.45 791.89 705.19 791.59 C 706.04 790.09 706.89 788.59 707.74 787.10 C 706.21 787.62 704.68 788.14 703.15 788.68 C 702.49 787.41 701.82 786.16 701.15 784.92 C 696.52 783.09 692.74 779.78 688.34 777.53 C 688.34 775.23 688.47 772.93 688.66 770.65 C 686.60 770.61 683.80 771.15 682.93 768.70 C 681.31 765.10 677.23 764.05 674.36 761.77 C 670.94 759.02 667.78 755.96 664.87 752.69 C 666.26 752.29 667.61 751.72 669.02 751.33 C 664.94 750.89 660.85 750.50 656.84 749.61 C 654.36 745.94 650.01 744.04 647.93 740.02 C 649.89 738.43 651.87 736.86 653.86 735.30 C 653.11 735.15 651.61 734.85 650.86 734.70 C 654.09 731.87 658.22 730.87 662.40 730.57 C 662.45 729.49 662.51 728.42 662.57 727.35 C 665.13 725.48 667.75 722.95 671.20 723.47 C 670.80 720.55 673.99 720.36 676.00 719.54 C 676.40 717.64 677.59 715.47 679.92 716.01 C 681.75 716.96 683.30 718.35 684.92 719.63 C 685.60 718.34 686.29 717.05 686.99 715.77 C 687.74 717.11 688.51 718.46 689.27 719.81 C 692.18 719.92 695.11 720.18 698.01 719.82 Z" />
</g>
<g id="#8a3cafff">
<path fill="#8a3caf" opacity="1.00" d=" M 328.34 726.52 C 331.59 726.10 334.81 725.56 337.89 724.40 C 341.35 725.20 344.58 726.78 347.86 728.11 C 350.46 729.06 351.60 731.75 352.99 733.91 C 354.49 732.81 355.98 731.67 357.45 730.52 C 361.31 730.56 365.31 730.05 368.97 731.64 C 370.05 730.93 371.08 730.14 372.24 729.57 C 374.71 730.31 376.94 732.13 379.66 731.64 C 396.69 741.88 414.63 750.75 433.51 757.05 C 431.26 757.88 429.09 759.15 426.66 759.34 C 424.39 759.01 422.42 757.73 420.41 756.74 C 420.84 756.10 421.28 755.48 421.72 754.86 C 417.45 756.50 412.92 757.23 408.36 757.27 C 408.09 758.72 407.83 760.18 407.57 761.66 C 402.97 761.26 398.96 764.27 394.41 763.71 C 389.89 763.36 385.05 765.09 380.92 762.53 C 380.06 762.96 379.21 763.41 378.36 763.87 C 377.75 763.53 377.16 763.20 376.57 762.89 C 374.49 763.73 372.28 764.21 370.04 764.07 C 358.70 763.78 347.36 764.23 336.03 763.82 C 336.22 762.10 336.40 760.39 336.60 758.69 C 333.72 757.77 330.69 757.68 327.78 758.51 C 328.80 759.38 329.88 760.19 330.81 761.19 C 331.26 763.38 330.95 765.64 330.89 767.87 C 330.26 767.86 328.99 767.83 328.36 767.81 C 328.09 766.25 327.83 764.71 327.57 763.17 C 325.41 763.09 323.25 763.02 321.10 762.95 C 320.37 762.03 319.65 761.13 318.93 760.24 C 316.35 760.05 313.78 759.69 311.30 758.96 C 310.90 759.19 310.10 759.65 309.70 759.88 C 308.78 759.39 307.87 758.93 306.96 758.46 C 306.19 758.65 305.42 758.86 304.66 759.08 C 298.97 756.37 292.07 760.04 286.81 756.25 C 284.88 755.06 282.99 753.83 281.08 752.63 C 281.79 752.31 283.22 751.68 283.94 751.37 C 282.82 750.65 281.71 749.94 280.60 749.24 C 280.17 750.10 279.74 750.97 279.31 751.85 C 278.54 750.56 277.77 749.29 277.02 748.02 C 272.57 748.23 268.07 748.06 263.82 746.63 C 263.10 747.04 262.38 747.46 261.67 747.90 C 260.81 747.40 259.89 747.03 259.04 746.56 C 255.35 747.77 251.79 745.57 248.35 744.53 C 246.55 747.30 244.23 749.63 241.64 751.66 C 239.68 754.24 238.33 757.26 236.09 759.66 C 237.54 759.82 239.00 760.00 240.45 760.19 C 240.26 762.66 240.90 765.42 239.67 767.68 C 234.56 768.64 229.11 767.12 224.23 769.42 C 223.27 767.29 222.66 764.67 220.27 763.73 C 220.07 767.49 220.26 771.33 219.19 775.00 C 218.78 774.76 217.96 774.28 217.55 774.04 C 218.92 770.72 218.39 767.16 217.28 763.85 C 215.94 764.41 214.60 765.00 213.25 765.58 C 214.26 762.40 214.96 759.13 215.70 755.89 C 216.90 756.57 218.10 757.25 219.31 757.94 C 221.15 755.37 222.43 752.43 222.56 749.24 C 224.65 748.66 226.74 748.13 228.85 747.64 C 227.34 747.06 225.83 746.46 224.34 745.86 C 226.31 745.27 228.34 744.93 230.39 744.75 C 228.42 742.32 228.82 739.19 229.14 736.31 C 231.15 735.74 233.15 735.13 235.13 734.47 C 238.20 730.14 244.35 731.40 248.56 728.78 C 248.90 729.26 249.24 729.75 249.59 730.25 C 252.84 730.03 255.24 732.31 255.38 735.57 C 255.95 734.68 256.52 733.80 257.15 732.97 C 259.65 733.31 261.37 735.49 263.71 736.22 C 268.18 736.12 272.89 735.22 277.00 737.57 C 277.99 737.02 278.98 736.47 279.98 735.93 C 281.90 737.33 283.70 739.01 285.94 739.92 C 286.93 739.54 287.89 739.09 288.86 738.65 C 289.37 739.68 289.90 740.72 290.42 741.77 C 291.42 740.62 292.42 739.47 293.43 738.32 C 294.40 739.70 295.36 741.09 296.37 742.46 C 296.39 740.74 296.29 739.03 296.19 737.33 C 297.75 738.94 299.39 740.48 301.04 742.02 C 303.97 740.38 306.45 738.09 309.14 736.12 C 311.16 735.90 313.17 736.31 315.18 736.52 C 315.99 735.58 316.57 734.38 317.66 733.74 C 319.52 733.21 321.93 733.97 323.29 732.27 C 325.12 730.49 326.23 727.99 328.34 726.52 Z" />
</g>
<g id="#813aa6ff">
<path fill="#813aa6" opacity="1.00" d=" M 639.18 739.55 C 643.67 740.59 647.16 736.59 650.86 734.70 C 651.61 734.85 653.11 735.15 653.86 735.30 C 651.87 736.86 649.89 738.43 647.93 740.02 C 650.01 744.04 654.36 745.94 656.84 749.61 C 660.85 750.50 664.94 750.89 669.02 751.33 C 667.61 751.72 666.26 752.29 664.87 752.69 C 667.78 755.96 670.94 759.02 674.36 761.77 C 677.23 764.05 681.31 765.10 682.93 768.70 C 683.80 771.15 686.60 770.61 688.66 770.65 C 688.47 772.93 688.34 775.23 688.34 777.53 C 692.74 779.78 696.52 783.09 701.15 784.92 C 701.82 786.16 702.49 787.41 703.15 788.68 C 704.68 788.14 706.21 787.62 707.74 787.10 C 706.89 788.59 706.04 790.09 705.19 791.59 C 706.45 791.89 707.71 792.20 708.98 792.52 C 706.71 794.45 703.45 796.11 704.02 799.66 L 704.01 799.80 C 679.11 816.41 652.23 830.19 623.82 839.70 C 572.98 856.93 518.03 861.72 464.97 853.57 C 455.84 852.13 446.67 850.67 437.78 848.11 C 442.94 847.39 447.93 849.10 452.93 850.08 C 467.88 852.24 482.79 855.13 497.96 855.27 C 513.62 856.68 529.29 854.99 544.96 854.96 C 549.34 854.64 553.60 853.36 558.01 853.16 C 563.43 852.94 568.60 851.11 574.01 850.75 C 582.57 849.24 591.11 847.46 599.50 845.17 C 602.49 844.37 605.47 843.56 608.46 842.74 C 608.40 842.03 608.35 841.33 608.30 840.65 C 612.21 842.44 616.16 840.01 619.95 839.04 C 623.84 838.05 626.73 834.80 630.79 834.31 C 635.11 830.06 634.42 823.56 633.71 818.08 C 632.45 814.94 631.66 811.65 631.76 808.25 C 629.25 808.07 626.75 807.89 624.25 807.73 C 624.12 805.21 623.98 802.71 623.82 800.21 C 621.41 800.04 619.01 799.87 616.61 799.70 C 616.21 798.35 615.99 796.95 615.38 795.70 C 613.14 794.10 610.51 793.12 608.39 791.35 C 607.74 788.99 608.14 786.50 608.18 784.10 C 610.01 784.07 611.85 784.05 613.70 784.04 C 613.78 786.98 613.92 789.99 615.02 792.77 C 616.58 789.43 616.11 785.72 615.85 782.18 C 613.27 782.02 610.70 781.88 608.13 781.74 C 608.06 777.53 608.04 773.32 608.01 769.12 C 607.09 768.42 606.19 767.73 605.30 767.05 C 605.62 766.47 605.96 765.90 606.30 765.34 C 605.38 764.79 604.46 764.24 603.54 763.71 C 604.74 762.66 605.95 761.63 607.15 760.58 C 604.41 759.77 601.55 759.15 598.68 759.56 C 595.20 759.85 591.67 761.68 588.23 760.21 C 605.95 755.32 622.91 748.04 639.18 739.55 Z" />
</g>
<g id="#8f3db5ff">
<path fill="#8f3db5" opacity="1.00" d=" M 241.64 751.66 C 244.23 749.63 246.55 747.30 248.35 744.53 C 251.79 745.57 255.35 747.77 259.04 746.56 C 259.89 747.03 260.81 747.40 261.67 747.90 C 262.38 747.46 263.10 747.04 263.82 746.63 C 268.07 748.06 272.57 748.23 277.02 748.02 C 277.77 749.29 278.54 750.56 279.31 751.85 C 279.74 750.97 280.17 750.10 280.60 749.24 C 281.71 749.94 282.82 750.65 283.94 751.37 C 283.22 751.68 281.79 752.31 281.08 752.63 C 282.99 753.83 284.88 755.06 286.81 756.25 C 292.07 760.04 298.97 756.37 304.66 759.08 C 305.42 758.86 306.19 758.65 306.96 758.46 C 307.87 758.93 308.78 759.39 309.70 759.88 C 310.10 759.65 310.90 759.19 311.30 758.96 C 313.78 759.69 316.35 760.05 318.93 760.24 C 319.65 761.13 320.37 762.03 321.10 762.95 C 323.25 763.02 325.41 763.09 327.57 763.17 C 327.83 764.71 328.09 766.25 328.36 767.81 C 328.99 767.83 330.26 767.86 330.89 767.87 C 330.95 765.64 331.26 763.38 330.81 761.19 C 329.88 760.19 328.80 759.38 327.78 758.51 C 330.69 757.68 333.72 757.77 336.60 758.69 C 336.40 760.39 336.22 762.10 336.03 763.82 C 347.36 764.23 358.70 763.78 370.04 764.07 C 372.28 764.21 374.49 763.73 376.57 762.89 C 377.16 763.20 377.75 763.53 378.36 763.87 C 379.21 763.41 380.06 762.96 380.92 762.53 C 385.05 765.09 389.89 763.36 394.41 763.71 C 398.96 764.27 402.97 761.26 407.57 761.66 C 407.83 760.18 408.09 758.72 408.36 757.27 C 412.92 757.23 417.45 756.50 421.72 754.86 C 421.28 755.48 420.84 756.10 420.41 756.74 C 422.42 757.73 424.39 759.01 426.66 759.34 C 429.09 759.15 431.26 757.88 433.51 757.05 C 463.61 767.14 495.53 771.38 527.23 770.20 C 529.71 772.08 532.80 772.78 535.55 774.15 C 533.16 774.47 530.75 774.42 528.36 774.27 C 527.93 777.46 527.84 780.69 528.08 783.91 C 530.93 784.16 533.86 784.30 536.57 783.17 C 534.86 782.18 533.13 781.25 531.39 780.35 C 531.67 779.61 531.95 778.89 532.25 778.17 C 536.46 777.88 540.69 777.89 544.90 778.19 C 544.69 779.58 544.49 780.98 544.30 782.39 C 544.82 782.45 545.36 782.52 545.91 782.60 C 549.88 785.75 555.27 783.59 559.87 784.06 C 560.10 789.29 559.94 794.54 560.18 799.78 C 565.40 800.05 570.62 799.93 575.85 800.12 C 576.33 807.98 575.71 815.85 576.14 823.71 C 578.06 823.89 579.99 824.07 581.92 824.29 C 580.03 826.91 577.70 829.17 575.70 831.71 C 581.43 832.37 587.21 831.57 592.93 832.33 C 592.23 833.55 591.48 834.77 590.93 836.08 C 590.93 838.36 593.82 838.44 595.34 839.41 C 594.94 840.43 594.54 841.46 594.14 842.49 C 595.93 842.56 597.72 842.69 599.52 842.87 C 599.51 843.45 599.50 844.59 599.50 845.17 C 591.11 847.46 582.57 849.24 574.01 850.75 C 568.60 851.11 563.43 852.94 558.01 853.16 C 553.60 853.36 549.34 854.64 544.96 854.96 C 529.29 854.99 513.62 856.68 497.96 855.27 C 482.79 855.13 467.88 852.24 452.93 850.08 C 447.93 849.10 442.94 847.39 437.78 848.11 C 425.91 845.86 414.38 841.90 402.99 837.89 C 381.80 830.17 361.42 820.27 342.12 808.61 C 320.17 815.93 298.00 822.59 275.94 829.60 C 247.99 838.49 219.92 847.05 191.92 855.78 C 190.99 855.97 189.12 856.34 188.19 856.52 C 189.31 849.57 191.43 842.84 193.10 836.02 C 196.52 823.05 199.86 810.06 203.03 797.03 C 203.40 795.94 203.45 794.65 204.21 793.76 C 205.22 792.58 206.63 791.58 206.88 789.95 C 208.84 781.78 211.02 773.67 213.25 765.58 C 214.60 765.00 215.94 764.41 217.28 763.85 C 218.39 767.16 218.92 770.72 217.55 774.04 C 217.96 774.28 218.78 774.76 219.19 775.00 C 220.26 771.33 220.07 767.49 220.27 763.73 C 222.66 764.67 223.27 767.29 224.23 769.42 C 229.11 767.12 234.56 768.64 239.67 767.68 C 240.90 765.42 240.26 762.66 240.45 760.19 C 239.00 760.00 237.54 759.82 236.09 759.66 C 238.33 757.26 239.68 754.24 241.64 751.66 Z" />
</g>
<g id="#893db0ff">
<path fill="#893db0" opacity="1.00" d=" M 588.23 760.21 C 591.67 761.68 595.20 759.85 598.68 759.56 C 601.55 759.15 604.41 759.77 607.15 760.58 C 605.95 761.63 604.74 762.66 603.54 763.71 C 604.46 764.24 605.38 764.79 606.30 765.34 C 605.96 765.90 605.62 766.47 605.30 767.05 C 606.19 767.73 607.09 768.42 608.01 769.12 C 608.04 773.32 608.06 777.53 608.13 781.74 C 610.70 781.88 613.27 782.02 615.85 782.18 C 616.11 785.72 616.58 789.43 615.02 792.77 C 613.92 789.99 613.78 786.98 613.70 784.04 C 611.85 784.05 610.01 784.07 608.18 784.10 C 608.14 786.50 607.74 788.99 608.39 791.35 C 610.51 793.12 613.14 794.10 615.38 795.70 C 615.99 796.95 616.21 798.35 616.61 799.70 C 619.01 799.87 621.41 800.04 623.82 800.21 C 623.98 802.71 624.12 805.21 624.25 807.73 C 626.75 807.89 629.25 808.07 631.76 808.25 C 631.66 811.65 632.45 814.94 633.71 818.08 C 634.42 823.56 635.11 830.06 630.79 834.31 C 626.73 834.80 623.84 838.05 619.95 839.04 C 616.16 840.01 612.21 842.44 608.30 840.65 C 608.35 841.33 608.40 842.03 608.46 842.74 C 605.47 843.56 602.49 844.37 599.50 845.17 C 599.50 844.59 599.51 843.45 599.52 842.87 C 597.72 842.69 595.93 842.56 594.14 842.49 C 594.54 841.46 594.94 840.43 595.34 839.41 C 593.82 838.44 590.93 838.36 590.93 836.08 C 591.48 834.77 592.23 833.55 592.93 832.33 C 587.21 831.57 581.43 832.37 575.70 831.71 C 577.70 829.17 580.03 826.91 581.92 824.29 C 579.99 824.07 578.06 823.89 576.14 823.71 C 575.71 815.85 576.33 807.98 575.85 800.12 C 570.62 799.93 565.40 800.05 560.18 799.78 C 559.94 794.54 560.10 789.29 559.87 784.06 C 555.27 783.59 549.88 785.75 545.91 782.60 C 545.36 782.52 544.82 782.45 544.30 782.39 C 544.49 780.98 544.69 779.58 544.90 778.19 C 540.69 777.89 536.46 777.88 532.25 778.17 C 531.95 778.89 531.67 779.61 531.39 780.35 C 533.13 781.25 534.86 782.18 536.57 783.17 C 533.86 784.30 530.93 784.16 528.08 783.91 C 527.84 780.69 527.93 777.46 528.36 774.27 C 530.75 774.42 533.16 774.47 535.55 774.15 C 532.80 772.78 529.71 772.08 527.23 770.20 C 547.86 769.14 568.35 765.87 588.23 760.21 Z" />
</g>
</svg>
