<?xml version="1.0" encoding="UTF-8"?>
<svg
  xmlns="http://www.w3.org/2000/svg"
  viewBox="0 0 1035 256"
  preserveAspectRatio="xMidYMid meet"
>
<g id="#e7e9eeff">
</g>
<g id="#fefefeff">
</g>
<g id="#430d65ff">
<path fill="#430d65" opacity="1.00" d=" M 93.19 28.20 C 101.78 24.79 110.94 23.30 120.01 21.80 C 127.00 21.44 134.02 21.44 141.01 21.80 C 162.90 24.62 184.36 33.05 200.93 47.87 C 199.73 49.01 198.54 50.15 197.34 51.29 C 197.13 52.69 196.91 54.09 196.70 55.49 C 193.10 55.65 189.80 57.03 187.18 59.49 C 185.87 59.12 184.57 58.75 183.27 58.38 C 180.77 60.04 178.06 61.37 175.17 62.21 C 160.05 51.74 141.25 47.04 122.97 48.61 C 105.76 50.55 89.01 57.52 76.17 69.27 C 74.26 66.68 76.75 64.48 78.06 62.39 C 76.32 62.48 74.58 62.56 72.84 62.61 C 72.34 61.89 71.86 61.17 71.37 60.46 C 70.33 60.87 69.31 61.36 68.22 61.64 C 65.75 60.53 63.37 59.21 60.81 58.30 C 58.93 56.30 56.95 54.38 54.76 52.72 L 54.48 52.49 C 65.82 42.22 78.64 33.27 93.19 28.20 Z" />
</g>
<g id="#ffffffff">
</g>
<g id="#481368ff">
<path fill="#481368" opacity="1.00" d=" M 200.93 47.87 C 207.51 53.92 214.02 60.28 218.80 67.88 C 217.66 68.97 216.47 70.00 215.29 71.05 C 215.18 72.68 216.33 75.35 214.19 76.05 C 208.04 77.80 202.86 81.96 196.43 82.84 C 190.63 74.80 183.43 67.70 175.17 62.21 C 178.06 61.37 180.77 60.04 183.27 58.38 C 184.57 58.75 185.87 59.12 187.18 59.49 C 189.80 57.03 193.10 55.65 196.70 55.49 C 196.91 54.09 197.13 52.69 197.34 51.29 C 198.54 50.15 199.73 49.01 200.93 47.87 Z" />
</g>
<g id="#4a156eff">
<path fill="#4a156e" opacity="1.00" d=" M 54.76 52.72 C 56.95 54.38 58.93 56.30 60.81 58.30 C 63.37 59.21 65.75 60.53 68.22 61.64 C 69.31 61.36 70.33 60.87 71.37 60.46 C 71.86 61.17 72.34 61.89 72.84 62.61 C 74.58 62.56 76.32 62.48 78.06 62.39 C 76.75 64.48 74.26 66.68 76.17 69.27 C 68.14 76.41 61.96 85.38 57.11 94.91 C 56.58 92.64 56.99 89.65 55.09 87.99 C 51.06 86.21 46.63 85.62 42.40 84.53 C 41.66 82.89 40.98 81.23 40.04 79.70 C 38.72 79.08 37.34 80.18 36.04 80.42 C 35.88 80.05 35.54 79.31 35.38 78.94 C 40.03 69.10 46.93 60.27 54.76 52.72 Z" />
</g>
<g id="#4b166cff">
<path fill="#4b166c" opacity="1.00" d=" M 114.80 84.82 C 131.32 79.08 147.47 72.24 164.12 66.87 C 162.39 71.56 158.79 75.21 156.25 79.45 C 152.60 85.28 148.44 90.77 144.94 96.68 L 143.96 96.57 C 143.64 96.53 142.99 96.44 142.67 96.40 C 141.37 93.15 137.76 92.60 134.87 91.45 C 132.77 92.41 130.82 93.63 129.04 95.10 C 124.45 96.61 124.48 102.79 119.81 104.19 L 119.23 104.05 C 118.81 103.80 117.97 103.31 117.56 103.07 L 117.14 102.84 C 112.39 98.16 106.82 94.42 101.97 89.84 C 106.07 87.73 110.57 86.63 114.80 84.82 Z" />
</g>
<g id="#4f196fff">
<path fill="#4f196f" opacity="1.00" d=" M 215.29 71.05 C 216.47 70.00 217.66 68.97 218.80 67.88 C 225.43 77.19 230.71 87.69 233.47 98.80 C 233.22 99.33 232.74 100.39 232.50 100.92 C 231.55 100.04 230.61 99.16 229.68 98.27 C 229.34 98.45 228.66 98.80 228.32 98.98 C 228.74 99.62 229.16 100.26 229.59 100.90 C 229.42 101.22 229.10 101.87 228.93 102.19 C 227.36 102.38 225.59 102.17 224.27 103.23 C 219.50 106.61 214.04 108.96 209.79 113.07 C 209.36 110.91 208.71 108.81 208.04 106.71 C 205.48 98.19 201.73 90.01 196.43 82.84 C 202.86 81.96 208.04 77.80 214.19 76.05 C 216.33 75.35 215.18 72.68 215.29 71.05 Z" />
</g>
<g id="#441169ff">
<path fill="#441169" opacity="1.00" d=" M 256.78 73.80 C 279.65 73.22 302.56 73.78 325.44 73.51 C 325.91 74.99 326.35 76.50 326.02 78.07 C 325.53 81.69 327.06 85.37 326.10 88.97 C 324.13 92.27 321.43 95.07 319.06 98.09 C 306.84 113.54 294.69 129.04 282.55 144.55 C 282.46 145.07 282.27 146.13 282.17 146.66 C 287.77 146.67 293.37 146.58 298.97 146.74 C 308.33 148.41 318.30 144.56 327.38 148.13 C 311.86 147.77 296.32 147.78 280.82 148.47 C 288.86 149.33 296.98 148.73 305.04 149.55 C 298.86 149.69 292.73 150.80 286.54 150.57 C 284.65 150.28 283.11 151.44 281.58 152.33 C 280.81 152.08 280.05 151.82 279.29 151.57 C 278.64 151.89 278.00 152.21 277.37 152.54 C 276.92 151.61 276.47 150.68 276.03 149.76 C 274.94 150.89 273.85 152.02 272.76 153.16 C 271.96 152.01 271.16 150.86 270.35 149.72 C 268.52 148.87 266.73 147.96 264.92 147.09 C 262.52 145.55 259.27 149.02 257.30 146.41 C 260.38 142.17 263.50 137.94 266.95 133.99 C 269.62 129.80 273.04 126.15 276.09 122.23 C 282.50 114.25 288.51 105.95 295.13 98.14 C 297.31 95.91 299.12 93.36 300.79 90.73 C 286.31 90.53 271.82 90.70 257.33 90.57 L 256.51 90.56 C 256.71 84.97 256.23 79.37 256.78 73.80 Z" />
</g>
<g id="#48126bff">
<path fill="#48126b" opacity="1.00" d=" M 488.51 73.66 C 495.13 74.04 501.96 72.75 508.42 74.49 C 508.46 93.68 508.33 112.88 508.56 132.08 C 508.59 138.15 512.04 143.68 517.12 146.86 C 516.12 147.28 515.13 147.69 514.14 148.11 C 513.08 147.40 512.02 146.69 510.98 145.98 C 509.22 148.49 507.38 150.94 505.44 153.30 C 506.02 154.00 506.61 154.70 507.20 155.41 C 504.72 157.26 501.67 157.94 498.69 156.93 C 498.37 156.87 497.74 156.75 497.42 156.69 C 491.87 150.50 488.22 142.41 488.41 134.00 C 488.37 113.89 488.22 93.77 488.51 73.66 Z" />
</g>
<g id="#4d1970ff">
<path fill="#4d1970" opacity="1.00" d=" M 545.32 74.26 C 551.82 74.11 558.33 74.23 564.83 74.18 C 564.75 94.77 564.89 115.36 564.77 135.95 C 564.78 148.90 555.06 160.19 543.10 164.21 C 533.94 166.58 524.33 165.86 514.98 165.34 C 509.20 163.42 502.70 161.89 498.69 156.93 C 501.67 157.94 504.72 157.26 507.20 155.41 C 506.61 154.70 506.02 154.00 505.44 153.30 C 507.38 150.94 509.22 148.49 510.98 145.98 C 512.02 146.69 513.08 147.40 514.14 148.11 C 515.13 147.69 516.12 147.28 517.12 146.86 L 517.78 146.59 C 523.08 149.54 529.51 148.70 535.17 147.33 C 539.55 145.36 543.15 141.62 544.31 136.88 C 544.66 134.24 544.62 131.57 545.21 128.96 C 545.50 110.73 545.37 92.49 545.32 74.26 Z" />
</g>
<g id="#551c75ff">
<path fill="#551c75" opacity="1.00" d=" M 656.33 73.38 C 662.39 73.46 668.45 73.31 674.52 73.40 C 674.49 100.60 674.52 127.80 674.48 155.00 C 674.43 158.06 674.71 161.15 674.18 164.19 C 668.27 164.69 662.34 164.23 656.42 164.42 C 656.09 134.08 656.22 103.73 656.33 73.38 Z" />
</g>
<g id="#6c2c8aff">
<path fill="#6c2c8a" opacity="1.00" d=" M 830.11 82.00 C 830.19 79.13 830.30 76.27 830.41 73.41 C 836.46 73.49 842.51 73.51 848.56 73.41 C 849.22 77.59 848.34 81.84 849.10 86.02 C 850.07 93.35 848.39 100.70 849.07 108.00 C 848.64 110.35 848.57 112.74 849.16 115.07 C 849.28 117.77 849.34 120.47 849.51 123.16 C 855.87 115.99 862.31 108.88 868.50 101.55 C 869.74 100.35 870.96 98.54 872.91 98.67 C 879.57 98.59 886.24 98.65 892.91 98.57 C 892.31 101.09 890.20 102.70 888.49 104.46 C 884.41 108.40 880.64 112.64 876.86 116.86 C 874.42 119.64 871.44 121.93 869.31 124.96 C 876.88 136.62 884.26 148.45 892.08 159.96 C 893.09 161.27 893.58 162.85 893.80 164.48 C 886.80 164.37 879.80 164.38 872.80 164.44 C 866.90 155.51 861.10 146.49 855.88 137.16 C 853.30 138.48 851.10 140.46 849.49 142.85 C 849.08 149.75 849.36 156.69 849.40 163.60 C 843.24 165.25 836.79 163.95 830.50 164.41 C 830.03 157.95 830.60 151.46 830.07 145.00 C 828.76 132.02 831.22 119.01 829.91 106.03 C 829.24 98.02 830.14 90.00 830.11 82.00 Z" />
</g>
<g id="#8d41abff">
<path fill="#8d41ab" opacity="1.00" d=" M 1010.54 105.95 C 1010.73 95.09 1011.54 84.25 1011.48 73.38 C 1017.71 73.66 1023.99 72.98 1030.20 73.71 C 1030.99 103.64 1030.18 133.66 1030.65 163.63 C 1026.55 164.99 1022.18 164.17 1017.96 164.39 C 1016.16 164.19 1013.81 164.99 1012.74 163.09 C 1012.46 160.49 1012.57 157.87 1012.60 155.27 C 1011.82 155.43 1011.06 155.60 1010.30 155.76 C 1009.82 154.53 1009.35 153.31 1008.88 152.09 C 1006.94 154.48 1005.51 157.23 1003.60 159.64 C 1002.21 160.37 1000.69 160.78 999.23 161.29 C 998.93 160.73 998.32 159.59 998.02 159.03 C 1000.18 157.14 1002.53 155.49 1005.00 154.04 C 1006.41 151.58 1008.33 149.48 1010.71 147.92 C 1011.89 148.84 1013.05 149.83 1014.36 150.59 C 1016.31 147.84 1012.04 147.03 1010.29 146.04 C 1013.82 141.08 1013.13 134.77 1014.03 129.05 C 1014.81 122.77 1009.09 118.14 1009.00 112.02 C 1008.86 110.29 1008.86 108.56 1008.79 106.83 C 1009.23 106.61 1010.10 106.17 1010.54 105.95 Z" />
</g>
<g id="#521a74ff">
<path fill="#521a74" opacity="1.00" d=" M 27.17 98.02 C 29.40 91.50 31.71 84.81 35.38 78.94 C 35.54 79.31 35.88 80.05 36.04 80.42 C 37.34 80.18 38.72 79.08 40.04 79.70 C 40.98 81.23 41.66 82.89 42.40 84.53 C 46.63 85.62 51.06 86.21 55.09 87.99 C 56.99 89.65 56.58 92.64 57.11 94.91 C 56.75 95.65 56.40 96.39 56.04 97.13 C 55.18 98.24 54.28 99.32 53.38 100.41 C 47.23 102.10 40.75 102.43 34.78 104.78 C 33.31 104.06 31.84 103.32 30.37 102.59 C 30.20 102.00 29.88 100.82 29.71 100.22 C 29.01 101.36 28.31 102.49 27.60 103.62 C 27.43 101.76 27.25 99.89 27.17 98.02 Z" />
</g>
<g id="#ddc8e8ff">
</g>
<g id="#521b75ff">
<path fill="#521b75" opacity="1.00" d=" M 134.87 91.45 C 137.76 92.60 141.37 93.15 142.67 96.40 C 142.99 96.44 143.64 96.53 143.96 96.57 L 144.76 96.67 C 139.74 103.94 134.70 111.21 129.98 118.69 L 129.63 118.60 C 128.11 118.24 126.59 117.88 125.07 117.51 C 124.98 118.05 124.79 119.14 124.70 119.68 C 123.59 119.32 122.48 118.96 121.37 118.61 C 121.00 117.33 120.62 116.05 120.31 114.76 C 120.21 111.23 120.19 107.70 119.81 104.19 C 124.48 102.79 124.45 96.61 129.04 95.10 C 130.82 93.63 132.77 92.41 134.87 91.45 Z" />
</g>
<g id="#5f2381ff">
<path fill="#5f2381" opacity="1.00" d=" M 53.38 100.41 C 54.28 99.32 55.18 98.24 56.04 97.13 C 53.26 104.82 50.43 112.71 50.27 120.99 C 50.08 129.21 49.81 137.53 51.22 145.67 C 51.28 148.25 51.22 150.83 51.19 153.41 C 50.65 151.72 50.11 150.04 49.56 148.36 C 48.41 148.08 47.26 147.80 46.11 147.53 C 45.23 144.63 45.72 141.74 47.63 139.37 C 46.87 138.57 46.12 137.77 45.35 136.97 C 45.13 138.52 44.92 140.08 44.69 141.64 C 40.12 141.69 35.81 143.25 31.46 144.46 C 30.94 145.59 30.42 146.73 29.90 147.86 C 29.07 147.33 28.24 146.79 27.42 146.26 C 26.91 148.67 26.34 151.06 25.79 153.45 C 22.47 144.02 23.22 133.89 23.14 124.07 C 22.96 115.22 24.88 106.52 27.17 98.02 C 27.25 99.89 27.43 101.76 27.60 103.62 C 28.31 102.49 29.01 101.36 29.71 100.22 C 29.88 100.82 30.20 102.00 30.37 102.59 C 31.84 103.32 33.31 104.06 34.78 104.78 C 40.75 102.43 47.23 102.10 53.38 100.41 Z" />
</g>
<g id="#561e78ff">
<path fill="#561e78" opacity="1.00" d=" M 228.32 98.98 C 228.66 98.80 229.34 98.45 229.68 98.27 C 230.61 99.16 231.55 100.04 232.50 100.92 C 232.74 100.39 233.22 99.33 233.47 98.80 C 237.50 110.30 238.32 122.62 237.52 134.71 C 235.83 131.44 236.17 127.02 232.49 125.10 C 232.04 125.49 231.14 126.27 230.69 126.66 C 229.31 125.62 227.81 124.69 226.67 123.38 C 226.03 121.33 225.94 119.17 225.67 117.05 C 223.72 118.71 221.77 120.36 219.84 122.04 C 217.92 120.74 216.00 119.44 214.09 118.12 C 213.81 119.04 213.53 119.96 213.25 120.88 C 212.43 120.61 211.60 120.34 210.79 120.07 C 210.52 117.73 210.22 115.39 209.79 113.07 C 214.04 108.96 219.50 106.61 224.27 103.23 C 225.59 102.17 227.36 102.38 228.93 102.19 C 229.10 101.87 229.42 101.22 229.59 100.90 C 229.16 100.26 228.74 99.62 228.32 98.98 Z" />
</g>
<g id="#431169ff">
<path fill="#431169" opacity="1.00" d=" M 345.38 103.37 C 348.86 100.10 353.61 99.10 358.01 97.67 C 365.88 97.45 374.13 96.39 381.62 99.46 C 388.67 101.73 394.55 108.38 394.61 115.98 C 394.82 131.90 394.64 147.83 394.78 163.75 C 389.03 163.69 383.29 163.83 377.54 163.68 C 377.49 161.28 377.45 158.90 377.43 156.51 C 377.06 156.54 376.32 156.62 375.94 156.65 C 373.86 160.43 370.07 162.76 366.15 164.26 C 365.08 164.58 364.03 164.94 362.99 165.32 C 358.05 165.69 353.01 166.09 348.14 164.96 C 341.76 163.10 336.59 157.67 335.52 151.06 C 335.18 146.62 334.88 141.81 337.11 137.77 C 339.42 133.35 343.48 129.90 348.15 128.16 C 349.11 127.82 350.09 127.49 351.06 127.16 C 357.52 125.17 364.32 124.99 370.95 123.91 C 372.47 123.36 374.55 123.58 375.55 122.07 C 375.87 120.06 375.76 118.00 375.33 116.02 C 374.35 114.44 372.65 113.56 371.21 112.48 C 366.63 112.33 361.54 111.51 357.81 114.84 C 357.28 116.39 356.70 117.92 356.18 119.48 C 350.23 119.44 344.28 119.46 338.33 119.50 C 338.42 117.68 338.54 115.86 338.66 114.04 C 340.28 110.16 341.88 106.00 345.38 103.37 M 364.97 136.77 C 360.87 137.45 356.45 138.78 354.39 142.75 C 354.43 144.58 354.44 146.41 354.44 148.24 C 357.14 152.49 362.69 151.95 367.03 151.39 C 370.93 150.54 373.62 147.48 375.43 144.11 C 375.59 141.13 375.72 138.14 375.77 135.16 C 372.13 135.43 368.58 136.31 364.97 136.77 Z" />
</g>
<g id="#441269ff">
<path fill="#441269" opacity="1.00" d=" M 429.08 107.31 C 431.28 102.33 436.02 99.35 440.98 97.62 C 446.55 97.34 452.44 96.77 457.63 99.27 C 464.93 102.03 469.70 108.79 472.26 115.89 C 472.56 116.91 472.89 117.92 473.25 118.94 C 475.07 127.75 475.55 137.21 472.72 145.86 C 472.61 146.40 472.40 147.47 472.29 148.00 C 469.64 154.85 464.80 160.89 458.19 164.26 C 452.63 166.02 446.68 166.01 440.95 165.30 C 435.66 164.18 431.35 160.47 428.85 155.76 C 427.69 166.50 428.97 177.42 428.25 188.21 C 422.07 189.20 415.67 188.36 409.40 188.68 C 409.45 158.67 409.19 128.64 409.48 98.62 C 415.35 98.84 421.26 98.22 427.12 98.86 C 427.48 101.80 427.40 104.76 427.45 107.72 C 427.86 107.62 428.67 107.42 429.08 107.31 M 428.42 132.96 C 427.91 139.57 431.16 146.12 436.90 149.49 C 439.96 149.62 443.05 149.94 446.10 149.41 C 450.33 147.98 452.80 143.99 454.42 140.07 C 454.70 134.06 455.21 127.94 454.00 121.99 C 452.97 120.08 452.13 117.99 450.52 116.48 C 447.12 112.84 441.42 112.78 436.95 113.97 C 430.12 117.37 427.89 125.88 428.42 132.96 Z" />
</g>
<g id="#521c74ff">
<path fill="#521c74" opacity="1.00" d=" M 600.93 107.17 C 604.21 100.58 611.82 97.17 618.95 97.40 C 624.33 97.10 629.88 98.50 634.22 101.76 C 639.05 105.60 641.64 111.89 641.64 117.99 C 641.81 133.26 641.63 148.53 641.75 163.80 C 635.75 165.04 629.57 164.11 623.49 164.44 C 623.06 156.30 623.91 148.11 622.94 140.01 C 623.77 137.03 622.65 134.04 622.67 131.05 C 622.64 126.86 622.68 122.68 622.46 118.50 C 620.60 116.58 618.88 114.16 616.08 113.64 C 612.70 113.26 608.92 113.01 605.95 114.97 C 602.81 117.28 600.07 120.83 600.35 124.93 C 600.29 137.77 600.29 150.61 600.43 163.45 C 594.40 165.58 587.75 163.92 581.46 164.43 C 581.33 142.49 581.36 120.55 581.45 98.61 C 587.34 98.77 593.28 98.14 599.13 98.91 C 599.47 101.86 599.40 104.83 599.47 107.79 C 599.84 107.63 600.57 107.33 600.93 107.17 Z" />
</g>
<g id="#5c247bff">
<path fill="#5c247b" opacity="1.00" d=" M 705.98 98.77 C 712.47 96.78 719.32 97.32 726.00 97.68 C 732.53 99.46 738.97 102.44 743.19 107.94 C 745.98 111.14 747.57 115.11 749.17 118.98 C 751.48 129.53 751.54 141.30 745.83 150.83 C 741.74 158.31 734.19 163.54 725.88 165.20 C 715.22 166.65 703.14 165.86 694.86 158.17 C 685.10 149.51 682.94 135.29 685.03 122.97 C 686.78 111.74 695.06 102.04 705.98 98.77 M 709.15 115.15 C 705.85 118.14 704.12 122.61 704.23 127.03 C 704.29 133.67 702.97 141.52 708.24 146.65 C 711.37 150.51 716.56 150.89 721.16 150.55 C 724.25 148.73 727.51 146.56 728.85 143.06 C 731.23 138.06 730.72 132.40 730.63 127.03 C 730.50 121.58 728.15 115.37 722.66 113.30 C 718.29 111.69 712.77 111.95 709.15 115.15 Z" />
</g>
<g id="#632781ff">
<path fill="#632781" opacity="1.00" d=" M 758.41 125.02 C 759.56 111.15 770.94 98.85 784.94 97.49 C 793.26 96.94 802.12 97.00 809.37 101.71 C 814.25 104.19 816.98 109.10 819.26 113.83 C 819.95 116.71 820.59 119.62 820.73 122.59 C 814.72 122.67 808.72 122.57 802.72 122.67 C 801.97 120.66 801.33 118.62 800.45 116.67 C 797.24 111.02 788.95 110.21 783.97 113.92 C 778.02 117.76 776.77 125.46 776.53 132.00 C 776.83 137.84 777.75 144.51 782.43 148.56 C 785.64 151.71 790.59 151.53 794.75 151.13 C 793.68 151.71 792.59 152.24 791.52 152.78 C 791.76 154.02 791.97 155.26 792.23 156.51 C 789.17 157.36 786.00 157.77 782.84 157.95 C 784.75 159.79 786.60 161.69 788.43 163.62 C 785.46 163.52 782.48 163.65 779.57 164.25 C 771.57 162.07 764.58 156.39 761.22 148.77 C 757.46 141.45 758.04 132.97 758.41 125.02 Z" />
</g>
<g id="#763496ff">
<path fill="#763496" opacity="1.00" d=" M 904.87 104.48 C 908.71 101.27 913.25 99.14 918.00 97.66 C 925.93 97.22 934.45 96.32 941.71 100.27 C 950.26 104.71 955.81 113.66 957.35 123.01 C 957.91 127.49 957.80 132.02 957.68 136.52 C 942.58 136.40 927.47 136.42 912.37 136.44 L 912.34 136.45 C 911.98 137.95 911.68 139.47 911.39 140.99 C 911.13 138.02 909.37 134.36 911.97 131.94 C 913.16 130.27 915.36 130.67 917.14 130.50 C 919.65 130.52 921.99 129.53 924.27 128.58 C 921.25 125.19 916.39 126.46 912.41 125.51 C 921.48 124.52 930.64 125.60 939.73 124.60 C 938.73 119.93 936.92 114.57 932.07 112.67 C 927.00 111.86 921.20 111.50 916.93 114.88 C 912.74 114.91 908.54 114.53 904.54 113.25 C 907.50 112.05 910.97 110.83 911.41 107.16 C 910.05 107.37 908.74 107.60 907.40 107.82 C 907.50 106.99 907.60 106.17 907.71 105.34 C 907.00 105.13 905.58 104.70 904.87 104.48 Z" />
</g>
<g id="#833b9fff">
<path fill="#833b9f" opacity="1.00" d=" M 972.49 106.48 C 979.58 97.54 992.99 94.84 1003.16 99.74 C 1005.73 101.27 1008.94 103.46 1008.79 106.83 C 1008.86 108.56 1008.86 110.29 1009.00 112.02 C 1009.09 118.14 1014.81 122.77 1014.03 129.05 C 1013.13 134.77 1013.82 141.08 1010.29 146.04 C 1012.04 147.03 1016.31 147.84 1014.36 150.59 C 1013.05 149.83 1011.89 148.84 1010.71 147.92 C 1008.33 149.48 1006.41 151.58 1005.00 154.04 C 1002.53 155.49 1000.18 157.14 998.02 159.03 C 998.32 159.59 998.93 160.73 999.23 161.29 C 1000.69 160.78 1002.21 160.37 1003.60 159.64 C 1005.51 157.23 1006.94 154.48 1008.88 152.09 C 1009.35 153.31 1009.82 154.53 1010.30 155.76 L 1010.80 157.07 C 1007.93 160.44 1004.54 163.67 1000.10 164.75 C 993.25 166.49 985.61 166.01 979.38 162.48 C 971.97 158.62 967.63 150.77 965.62 142.93 C 963.25 130.59 964.39 116.59 972.49 106.48 M 991.53 114.79 C 987.43 117.45 985.31 122.31 984.58 126.99 C 983.92 133.96 983.96 142.27 989.81 147.17 C 992.66 150.26 997.13 149.86 1000.96 149.62 C 1004.75 149.48 1007.39 146.21 1009.27 143.26 C 1011.87 138.28 1011.79 132.42 1011.42 126.96 C 1010.97 121.34 1007.79 115.33 1002.00 113.78 C 998.52 113.16 994.72 113.10 991.53 114.79 Z" />
</g>
<g id="#5c227fff">
<path fill="#5c227f" opacity="1.00" d=" M 117.56 103.07 C 117.97 103.31 118.81 103.80 119.23 104.05 C 118.29 107.29 118.63 110.68 118.59 114.00 C 118.66 119.05 118.26 124.18 119.45 129.14 C 120.04 124.37 120.23 119.56 120.31 114.76 C 120.62 116.05 121.00 117.33 121.37 118.61 C 122.48 118.96 123.59 119.32 124.70 119.68 C 124.79 119.14 124.98 118.05 125.07 117.51 C 126.59 117.88 128.11 118.24 129.63 118.60 C 127.48 122.37 124.76 125.75 122.56 129.48 C 121.76 130.80 120.88 132.13 119.52 132.93 C 119.95 133.13 120.38 133.33 120.82 133.54 C 120.29 133.49 119.22 133.39 118.68 133.34 C 118.95 127.55 117.86 121.80 118.23 116.00 C 118.08 111.69 118.76 107.28 117.56 103.07 Z" />
</g>
<g id="#7f5b91ff">
<path fill="#7f5b91" opacity="1.00" d=" M 119.23 104.05 L 119.81 104.19 C 120.19 107.70 120.21 111.23 120.31 114.76 C 120.23 119.56 120.04 124.37 119.45 129.14 C 118.26 124.18 118.66 119.05 118.59 114.00 C 118.63 110.68 118.29 107.29 119.23 104.05 Z" />
</g>
<g id="#722f8eff">
<path fill="#722f8e" opacity="1.00" d=" M 894.18 127.95 C 894.17 119.05 898.59 110.60 904.87 104.48 C 905.58 104.70 907.00 105.13 907.71 105.34 C 907.60 106.17 907.50 106.99 907.40 107.82 C 908.74 107.60 910.05 107.37 911.41 107.16 C 910.97 110.83 907.50 112.05 904.54 113.25 C 908.54 114.53 912.74 114.91 916.93 114.88 C 914.55 117.57 913.17 120.93 913.06 124.53 C 921.95 124.56 930.83 124.67 939.73 124.60 C 930.64 125.60 921.48 124.52 912.41 125.51 C 916.39 126.46 921.25 125.19 924.27 128.58 C 921.99 129.53 919.65 130.52 917.14 130.50 C 915.36 130.67 913.16 130.27 911.97 131.94 C 909.37 134.36 911.13 138.02 911.39 140.99 C 911.68 139.47 911.98 137.95 912.34 136.45 L 912.37 136.44 C 912.58 141.51 914.78 146.22 918.73 149.42 C 918.30 150.57 917.87 151.71 917.44 152.85 C 916.48 152.24 915.57 151.59 914.57 151.11 C 912.07 152.88 909.73 155.08 908.49 157.94 C 909.97 157.07 911.44 156.14 912.89 155.20 C 913.17 155.63 913.72 156.51 913.99 156.95 C 913.44 157.70 912.90 158.47 912.38 159.23 C 913.67 160.07 914.98 160.91 916.29 161.76 C 914.41 161.84 912.54 161.93 910.69 161.96 C 903.28 159.34 898.57 152.12 895.71 145.14 C 893.87 139.59 894.09 133.71 894.18 127.95 Z" />
</g>
<g id="#c4abd1ff">
<path fill="#c4abd1" opacity="1.00" d=" M 208.04 106.71 C 208.71 108.81 209.36 110.91 209.79 113.07 C 210.22 115.39 210.52 117.73 210.79 120.07 C 211.82 129.00 211.08 138.02 209.61 146.86 C 208.50 151.86 206.83 156.71 205.01 161.49 C 204.42 162.45 203.79 163.39 203.18 164.35 C 204.65 158.13 207.88 152.42 208.57 146.01 C 209.27 140.67 210.26 135.35 210.33 129.96 C 210.07 122.17 208.63 114.48 208.04 106.71 Z" />
</g>
<g id="#9a81a9ff">
</g>
<g id="#fdfdfeff">
</g>
<g id="#fbfafdff">
</g>
<g id="#fdfdfdff">
</g>
<g id="#5d2280ff">
<path fill="#5d2280" opacity="1.00" d=" M 219.84 122.04 C 221.77 120.36 223.72 118.71 225.67 117.05 C 225.94 119.17 226.03 121.33 226.67 123.38 C 227.81 124.69 229.31 125.62 230.69 126.66 C 231.14 126.27 232.04 125.49 232.49 125.10 C 236.17 127.02 235.83 131.44 237.52 134.71 C 237.57 136.40 237.56 138.09 237.56 139.78 C 236.50 139.49 235.43 139.29 234.41 138.89 C 234.42 137.64 234.57 136.41 234.70 135.17 C 233.13 137.10 231.27 138.75 229.52 140.52 C 228.11 142.23 227.54 144.46 226.30 146.28 C 222.58 147.05 218.82 147.67 215.22 148.91 C 214.56 148.18 213.97 147.40 213.38 146.64 C 212.49 147.89 211.59 149.14 210.69 150.39 C 210.31 149.22 209.95 148.04 209.61 146.86 C 211.08 138.02 211.82 129.00 210.79 120.07 C 211.60 120.34 212.43 120.61 213.25 120.88 C 213.53 119.96 213.81 119.04 214.09 118.12 C 216.00 119.44 217.92 120.74 219.84 122.04 Z" />
</g>
<g id="#552373ff">
<path fill="#552373" opacity="1.00" d=" M 141.04 124.85 C 141.45 124.72 142.26 124.46 142.66 124.33 C 142.68 130.80 142.71 137.29 142.13 143.75 C 140.79 140.93 139.90 137.93 139.31 134.87 C 138.27 135.07 137.23 135.26 136.19 135.44 C 135.98 135.08 135.56 134.37 135.35 134.01 C 137.13 130.88 139.34 128.02 141.04 124.85 Z" />
</g>
<g id="#662a8bff">
<path fill="#662a8b" opacity="1.00" d=" M 119.90 157.40 C 124.84 149.47 129.96 141.64 135.35 134.01 C 135.56 134.37 135.98 135.08 136.19 135.44 C 137.23 135.26 138.27 135.07 139.31 134.87 C 139.90 137.93 140.79 140.93 142.13 143.75 C 142.70 147.77 142.12 151.88 142.39 155.94 C 141.74 156.71 141.10 157.47 140.45 158.24 C 140.43 159.55 140.41 160.85 140.39 162.16 C 138.92 161.28 137.46 160.40 135.99 159.54 C 134.24 159.97 132.37 161.36 130.60 160.31 C 127.76 158.82 124.69 158.04 121.49 157.99 C 121.09 157.84 120.30 157.55 119.90 157.40 Z" />
</g>
<g id="#652888ff">
<path fill="#652888" opacity="1.00" d=" M 229.52 140.52 C 231.27 138.75 233.13 137.10 234.70 135.17 C 234.57 136.41 234.42 137.64 234.41 138.89 C 235.43 139.29 236.50 139.49 237.56 139.78 C 236.68 149.04 234.40 158.13 231.27 166.87 C 230.06 165.76 228.81 164.70 227.56 163.64 C 227.60 162.87 227.64 162.10 227.69 161.33 C 221.79 161.83 214.87 163.63 210.00 159.20 C 208.35 160.00 206.70 160.79 205.01 161.49 C 206.83 156.71 208.50 151.86 209.61 146.86 C 209.95 148.04 210.31 149.22 210.69 150.39 C 211.59 149.14 212.49 147.89 213.38 146.64 C 213.97 147.40 214.56 148.18 215.22 148.91 C 218.82 147.67 222.58 147.05 226.30 146.28 C 227.54 144.46 228.11 142.23 229.52 140.52 Z" />
</g>
<g id="#fcfbfcff">
</g>
<g id="#6f2e94ff">
<path fill="#6f2e94" opacity="1.00" d=" M 45.35 136.97 C 46.12 137.77 46.87 138.57 47.63 139.37 C 45.72 141.74 45.23 144.63 46.11 147.53 C 47.26 147.80 48.41 148.08 49.56 148.36 C 50.11 150.04 50.65 151.72 51.19 153.41 C 51.22 150.83 51.28 148.25 51.22 145.67 C 54.37 159.00 60.27 171.68 69.26 182.09 C 67.46 182.33 65.65 182.54 63.84 182.76 C 62.35 177.69 59.36 173.29 56.47 168.94 C 55.57 170.18 54.67 171.43 53.77 172.68 C 49.92 173.33 46.02 173.33 42.15 172.91 C 39.77 175.05 37.89 177.67 35.66 179.94 C 31.66 173.46 29.09 166.23 26.81 159.00 C 26.38 157.18 25.54 155.34 25.79 153.45 C 26.34 151.06 26.91 148.67 27.42 146.26 C 28.24 146.79 29.07 147.33 29.90 147.86 C 30.42 146.73 30.94 145.59 31.46 144.46 C 35.81 143.25 40.12 141.69 44.69 141.64 C 44.92 140.08 45.13 138.52 45.35 136.97 Z" />
</g>
<g id="#6a2d8bff">
<path fill="#6a2d8b" opacity="1.00" d=" M 802.66 140.38 C 808.63 139.64 814.72 140.63 820.76 140.43 C 820.66 150.52 813.81 160.01 804.42 163.57 C 798.63 166.15 792.19 165.71 786.02 165.57 C 783.79 165.56 781.66 164.89 779.57 164.25 C 782.48 163.65 785.46 163.52 788.43 163.62 C 786.60 161.69 784.75 159.79 782.84 157.95 C 786.00 157.77 789.17 157.36 792.23 156.51 C 791.97 155.26 791.76 154.02 791.52 152.78 C 792.59 152.24 793.68 151.71 794.75 151.13 C 795.11 150.89 795.82 150.42 796.18 150.18 C 799.49 147.82 801.86 144.41 802.66 140.38 Z" />
</g>
<g id="#773793ff">
<path fill="#773793" opacity="1.00" d=" M 933.06 150.32 C 936.01 149.25 938.21 146.92 939.92 144.37 C 945.58 144.32 951.24 144.33 956.91 144.35 C 956.38 150.85 951.88 156.15 946.98 160.04 C 943.50 162.84 939.12 163.99 934.96 165.35 C 926.89 165.55 917.72 166.77 910.69 161.96 C 912.54 161.93 914.41 161.84 916.29 161.76 C 914.98 160.91 913.67 160.07 912.38 159.23 C 912.90 158.47 913.44 157.70 913.99 156.95 C 913.72 156.51 913.17 155.63 912.89 155.20 C 911.44 156.14 909.97 157.07 908.49 157.94 C 909.73 155.08 912.07 152.88 914.57 151.11 C 915.57 151.59 916.48 152.24 917.44 152.85 C 917.87 151.71 918.30 150.57 918.73 149.42 C 923.33 150.92 928.30 151.12 933.06 150.32 Z" />
</g>
<g id="#4b1870ff">
<path fill="#4b1870" opacity="1.00" d=" M 255.40 148.75 C 256.02 147.97 256.66 147.19 257.30 146.41 C 259.27 149.02 262.52 145.55 264.92 147.09 C 266.73 147.96 268.52 148.87 270.35 149.72 C 271.16 150.86 271.96 152.01 272.76 153.16 C 273.85 152.02 274.94 150.89 276.03 149.76 C 276.47 150.68 276.92 151.61 277.37 152.54 C 278.00 152.21 278.64 151.89 279.29 151.57 C 280.05 151.82 280.81 152.08 281.58 152.33 C 283.11 151.44 284.65 150.28 286.54 150.57 C 292.73 150.80 298.86 149.69 305.04 149.55 C 296.98 148.73 288.86 149.33 280.82 148.47 C 296.32 147.78 311.86 147.77 327.38 148.13 L 327.62 148.13 C 327.50 153.30 327.42 158.48 327.62 163.66 C 326.11 164.12 324.57 164.52 322.99 164.43 C 303.99 164.35 284.99 164.45 265.99 164.37 C 262.42 164.29 258.78 164.77 255.31 163.72 C 255.45 158.73 255.37 153.74 255.40 148.75 Z" />
</g>
<g id="#74319aff">
<path fill="#74319a" opacity="1.00" d=" M 142.39 155.94 L 142.95 155.29 C 148.31 159.94 154.04 164.13 159.47 168.71 C 159.49 169.08 159.54 169.83 159.57 170.20 C 146.29 174.48 133.11 179.03 120.01 183.83 C 112.59 185.87 105.64 189.53 98.03 190.79 C 105.16 179.57 112.24 168.26 119.90 157.40 C 120.30 157.55 121.09 157.84 121.49 157.99 C 124.69 158.04 127.76 158.82 130.60 160.31 C 132.37 161.36 134.24 159.97 135.99 159.54 C 137.46 160.40 138.92 161.28 140.39 162.16 C 140.41 160.85 140.43 159.55 140.45 158.24 C 141.10 157.47 141.74 156.71 142.39 155.94 Z" />
</g>
<g id="#6f2e93ff">
<path fill="#6f2e93" opacity="1.00" d=" M 205.01 161.49 C 206.70 160.79 208.35 160.00 210.00 159.20 C 214.87 163.63 221.79 161.83 227.69 161.33 C 227.64 162.10 227.60 162.87 227.56 163.64 C 228.81 164.70 230.06 165.76 231.27 166.87 C 230.43 169.32 229.26 171.65 228.18 174.01 C 226.56 173.70 224.94 173.28 223.28 173.28 C 221.07 174.14 220.48 176.74 219.32 178.58 C 218.34 178.02 217.35 177.47 216.36 176.93 C 216.20 179.07 216.10 181.23 215.72 183.35 C 212.70 183.68 209.61 183.82 206.60 183.38 C 203.39 182.63 200.47 181.02 197.38 179.93 C 195.92 180.10 194.46 180.20 193.00 180.25 C 196.91 175.29 200.26 169.93 203.18 164.35 C 203.79 163.39 204.42 162.45 205.01 161.49 Z" />
</g>
<g id="#7d34a5ff">
<path fill="#7d34a5" opacity="1.00" d=" M 56.47 168.94 C 59.36 173.29 62.35 177.69 63.84 182.76 C 65.65 182.54 67.46 182.33 69.26 182.09 C 71.54 184.71 74.04 187.11 76.50 189.55 C 76.39 190.14 76.17 191.32 76.05 191.91 C 75.37 191.36 74.68 190.81 74.00 190.26 C 74.20 191.47 74.41 192.68 74.61 193.89 C 74.21 193.90 73.40 193.94 73.00 193.95 C 72.59 192.30 71.87 190.75 70.74 189.47 C 70.73 190.67 70.74 191.88 70.76 193.09 C 69.89 192.58 69.02 192.08 68.16 191.58 C 64.94 193.00 61.51 193.93 57.98 194.01 C 51.87 194.03 46.45 197.48 40.35 197.61 C 39.71 199.73 39.09 201.85 38.44 203.96 C 38.17 203.36 37.64 202.15 37.38 201.54 C 37.17 196.86 40.14 192.74 40.30 188.11 C 38.87 185.36 36.97 182.89 35.41 180.21 L 35.66 179.94 C 37.89 177.67 39.77 175.05 42.15 172.91 C 46.02 173.33 49.92 173.33 53.77 172.68 C 54.67 171.43 55.57 170.18 56.47 168.94 Z" />
</g>
<g id="#7b35a1ff">
<path fill="#7b35a1" opacity="1.00" d=" M 223.28 173.28 C 224.94 173.28 226.56 173.70 228.18 174.01 C 223.18 184.72 216.46 194.66 208.08 203.03 C 204.13 206.87 200.47 211.12 195.74 214.05 C 195.79 213.62 195.89 212.75 195.93 212.32 C 196.17 211.44 196.43 210.58 196.71 209.72 C 195.84 208.78 194.97 207.85 194.11 206.93 C 189.80 209.63 185.15 206.70 180.60 206.57 C 177.41 206.68 175.29 204.06 172.58 202.90 C 170.39 202.37 168.12 202.26 165.91 201.85 C 176.16 196.42 185.62 189.24 193.00 180.25 C 194.46 180.20 195.92 180.10 197.38 179.93 C 200.47 181.02 203.39 182.63 206.60 183.38 C 209.61 183.82 212.70 183.68 215.72 183.35 C 216.10 181.23 216.20 179.07 216.36 176.93 C 217.35 177.47 218.34 178.02 219.32 178.58 C 220.48 176.74 221.07 174.14 223.28 173.28 Z" />
</g>
<g id="#8939b2ff">
<path fill="#8939b2" opacity="1.00" d=" M 70.74 189.47 C 71.87 190.75 72.59 192.30 73.00 193.95 C 73.40 193.94 74.21 193.90 74.61 193.89 C 74.41 192.68 74.20 191.47 74.00 190.26 C 74.68 190.81 75.37 191.36 76.05 191.91 C 76.17 191.32 76.39 190.14 76.50 189.55 C 87.99 199.35 101.97 206.60 117.00 208.85 C 122.58 209.85 128.29 209.78 133.94 209.72 C 145.05 209.67 155.80 206.21 165.91 201.85 C 168.12 202.26 170.39 202.37 172.58 202.90 C 175.29 204.06 177.41 206.68 180.60 206.57 C 185.15 206.70 189.80 209.63 194.11 206.93 C 194.97 207.85 195.84 208.78 196.71 209.72 C 196.43 210.58 196.17 211.44 195.93 212.32 C 195.89 212.75 195.79 213.62 195.74 214.05 L 195.71 214.40 C 186.17 221.51 175.64 227.94 163.99 230.79 C 165.93 227.86 168.74 225.71 171.59 223.73 C 169.50 223.37 167.42 223.00 165.33 222.63 C 164.48 221.69 163.64 220.74 162.79 219.80 C 160.19 220.63 157.43 222.55 154.64 221.44 C 151.98 220.55 150.53 218.01 148.93 215.90 C 148.32 216.95 147.70 218.00 147.09 219.06 C 146.20 218.65 145.31 218.24 144.42 217.83 C 144.93 217.12 145.44 216.40 145.95 215.69 C 142.46 215.92 138.96 215.97 135.47 215.90 C 135.24 215.25 134.79 213.96 134.56 213.31 C 130.83 212.95 127.11 212.15 123.35 212.43 C 121.77 213.18 121.33 215.20 120.37 216.55 C 119.27 215.37 118.38 213.89 116.92 213.13 C 114.28 212.31 112.17 214.48 110.09 215.72 C 109.40 214.85 108.72 213.98 108.03 213.11 C 109.81 212.40 111.59 211.70 113.36 210.96 C 111.31 210.24 109.22 209.65 107.09 209.25 C 103.71 208.24 100.27 206.84 96.67 207.23 C 93.64 207.78 91.13 209.91 88.04 210.27 C 82.10 211.20 76.17 209.73 70.36 208.62 C 69.82 207.60 69.28 206.57 68.74 205.55 C 67.92 205.54 67.10 205.54 66.27 205.53 C 59.78 203.98 52.96 205.02 46.50 206.28 C 44.26 206.61 41.76 205.07 39.80 206.77 C 35.45 208.87 37.31 215.09 33.26 217.39 C 33.83 211.69 36.09 206.34 37.01 200.69 L 37.38 201.54 C 37.64 202.15 38.17 203.36 38.44 203.96 C 39.09 201.85 39.71 199.73 40.35 197.61 C 46.45 197.48 51.87 194.03 57.98 194.01 C 61.51 193.93 64.94 193.00 68.16 191.58 C 69.02 192.08 69.89 192.58 70.76 193.09 C 70.74 191.88 70.73 190.67 70.74 189.47 Z" />
</g>
<g id="#933cbeff">
<path fill="#933cbe" opacity="1.00" d=" M 46.50 206.28 C 52.96 205.02 59.78 203.98 66.27 205.53 C 67.10 205.54 67.92 205.54 68.74 205.55 C 69.28 206.57 69.82 207.60 70.36 208.62 C 76.17 209.73 82.10 211.20 88.04 210.27 C 91.13 209.91 93.64 207.78 96.67 207.23 C 100.27 206.84 103.71 208.24 107.09 209.25 C 109.22 209.65 111.31 210.24 113.36 210.96 C 111.59 211.70 109.81 212.40 108.03 213.11 C 108.72 213.98 109.40 214.85 110.09 215.72 C 112.17 214.48 114.28 212.31 116.92 213.13 C 118.38 213.89 119.27 215.37 120.37 216.55 C 121.33 215.20 121.77 213.18 123.35 212.43 C 127.11 212.15 130.83 212.95 134.56 213.31 C 134.79 213.96 135.24 215.25 135.47 215.90 C 138.96 215.97 142.46 215.92 145.95 215.69 C 145.44 216.40 144.93 217.12 144.42 217.83 C 145.31 218.24 146.20 218.65 147.09 219.06 C 147.70 218.00 148.32 216.95 148.93 215.90 C 150.53 218.01 151.98 220.55 154.64 221.44 C 157.43 222.55 160.19 220.63 162.79 219.80 C 163.64 220.74 164.48 221.69 165.33 222.63 C 167.42 223.00 169.50 223.37 171.59 223.73 C 168.74 225.71 165.93 227.86 163.99 230.79 L 163.67 231.20 C 152.61 235.37 140.70 236.73 128.94 236.56 C 112.62 236.68 96.47 232.31 81.92 225.06 C 79.91 224.19 78.00 222.03 75.63 222.97 C 62.58 227.21 49.26 230.55 36.11 234.45 C 33.28 235.42 30.44 236.43 27.43 236.65 C 29.19 230.40 31.13 224.20 32.67 217.89 C 32.82 217.77 33.11 217.52 33.26 217.39 C 37.31 215.09 35.45 208.87 39.80 206.77 C 41.76 205.07 44.26 206.61 46.50 206.28 Z" />
</g>
</svg>
