<?xml version="1.0" encoding="UTF-8" ?>
<!DOCTYPE svg PUBLIC "-//W3C//DTD SVG 1.1//EN" "http://www.w3.org/Graphics/SVG/1.1/DTD/svg11.dtd">
<svg width="1423pt" height="743pt" viewBox="0 0 1423 743" version="1.1" xmlns="http://www.w3.org/2000/svg">
<g id="#0b0b0bff">
</g>
<g id="#341348ff">
<path fill="#341348" opacity="1.00" d=" M 20.24 0.00 L 950.00 0.00 C 953.05 17.43 955.29 35.03 959.75 52.18 C 963.41 67.03 967.18 81.89 972.87 96.11 C 983.41 124.05 996.50 151.88 1017.42 173.63 C 1021.27 177.43 1025.34 181.03 1029.41 184.60 C 1032.01 186.58 1035.31 189.21 1038.77 187.85 C 1043.06 186.06 1046.57 182.91 1050.44 180.40 C 1065.93 169.99 1081.76 160.04 1096.39 148.41 C 1102.62 143.23 1109.62 139.07 1115.71 133.72 C 1122.33 128.02 1128.84 122.18 1135.75 116.81 C 1142.84 111.29 1148.79 104.51 1155.18 98.23 C 1162.65 90.69 1170.27 83.31 1177.73 75.75 C 1189.17 63.09 1200.28 50.11 1210.31 36.29 C 1219.38 24.76 1227.53 12.56 1235.10 0.00 L 1401.91 0.00 C 1411.42 7.89 1417.33 18.92 1423.00 29.66 L 1423.00 501.73 C 1410.56 500.72 1398.40 497.72 1386.05 496.10 C 1364.10 493.79 1342.10 491.17 1319.99 491.83 C 1295.86 491.40 1271.64 492.42 1247.85 496.70 C 1228.65 500.16 1209.50 504.41 1191.12 511.04 C 1174.29 517.07 1158.02 524.62 1142.53 533.53 C 1126.53 541.76 1112.49 553.19 1098.84 564.78 C 1092.21 571.51 1084.71 577.34 1078.58 584.55 C 1054.23 609.88 1035.27 640.04 1020.90 672.00 C 1009.65 694.52 1002.47 718.77 995.98 743.00 L 321.01 743.00 C 319.77 731.48 317.43 720.15 315.18 708.80 C 314.23 704.66 312.55 700.74 311.56 696.62 C 308.88 684.72 307.95 672.06 301.68 661.32 C 295.54 650.28 291.61 637.64 282.31 628.68 C 280.00 626.39 277.81 623.92 275.07 622.15 C 268.99 625.49 264.82 631.24 259.58 635.63 C 253.02 641.01 247.36 647.36 241.25 653.24 C 236.01 658.13 232.93 664.79 227.76 669.73 C 221.76 675.55 217.57 682.87 212.19 689.22 C 207.41 694.87 203.79 701.37 199.12 707.10 C 193.63 713.77 189.51 721.39 184.27 728.25 C 180.86 732.62 178.31 737.62 176.93 743.00 L 22.00 743.00 C 10.47 735.67 3.69 723.03 0.00 710.22 L 0.00 525.79 C 5.90 528.42 11.24 532.11 16.98 535.07 C 34.47 544.01 53.06 550.48 71.37 557.53 C 88.66 563.25 106.27 568.02 124.05 571.96 C 135.62 574.60 147.23 577.25 159.00 578.75 C 161.76 579.41 163.66 577.11 165.39 575.39 C 176.70 563.16 186.26 549.48 196.32 536.25 C 214.36 512.95 228.72 487.07 241.59 460.63 C 250.54 440.87 258.07 420.43 263.37 399.38 C 268.51 378.31 272.55 356.77 272.23 335.00 C 272.09 325.33 272.38 315.66 271.99 306.00 C 271.24 291.95 268.76 278.06 265.65 264.37 C 264.24 257.15 262.31 250.04 259.88 243.10 C 253.35 224.20 245.77 205.58 235.73 188.25 C 226.30 171.52 215.20 155.78 203.16 140.85 C 192.26 128.77 181.92 116.07 169.38 105.60 C 161.68 98.99 154.51 91.74 146.31 85.72 C 127.35 70.86 107.17 57.56 86.06 45.96 C 66.61 35.04 46.04 26.36 25.72 17.23 C 20.54 14.99 15.49 12.42 10.12 10.64 C 13.52 7.12 16.87 3.55 20.24 0.00 M 653.91 244.17 C 648.45 244.58 643.80 247.71 638.99 250.00 C 634.10 252.52 628.99 254.55 624.05 256.95 C 615.70 260.87 609.33 267.78 601.40 272.39 C 587.77 280.70 579.22 294.64 570.62 307.63 C 567.94 312.21 564.55 316.73 564.01 322.17 C 557.28 334.41 554.13 348.30 552.39 362.06 C 551.34 375.67 550.51 389.50 553.21 402.99 C 553.64 404.95 553.92 407.05 555.23 408.68 C 556.33 420.77 561.65 431.93 566.69 442.81 C 568.94 446.46 571.82 449.86 572.94 454.08 C 572.65 457.13 571.57 460.04 571.07 463.06 C 569.22 467.56 568.25 472.42 567.65 477.23 C 563.35 490.06 560.42 503.41 557.18 516.57 C 578.42 511.45 598.71 502.83 619.88 497.70 C 631.38 503.85 643.15 509.91 655.95 512.83 C 678.43 518.23 702.48 519.08 724.80 512.49 C 740.06 508.76 754.73 502.18 767.61 493.15 C 777.77 486.03 787.01 477.58 795.17 468.23 C 803.04 458.61 810.03 448.15 815.35 436.88 C 824.57 418.02 828.88 396.91 828.31 375.95 C 828.01 369.05 828.43 361.89 826.05 355.29 C 826.60 348.27 823.84 341.55 822.05 334.88 C 816.56 317.74 807.08 302.10 795.76 288.21 L 795.25 288.23 C 793.68 285.99 791.68 284.11 789.77 282.18 C 784.56 277.04 779.61 271.56 773.55 267.39 C 766.45 262.43 759.87 256.43 751.60 253.47 C 743.37 250.66 735.56 246.61 726.98 244.90 C 716.88 242.18 706.62 239.30 696.04 239.95 C 681.83 239.14 667.98 243.00 653.91 244.17 Z" />
</g>
<g id="#422354ff">
<path fill="#422354" opacity="1.00" d=" M 950.00 0.00 L 1235.10 0.00 C 1227.53 12.56 1219.38 24.76 1210.31 36.29 C 1200.28 50.11 1189.17 63.09 1177.73 75.75 C 1170.27 83.31 1162.65 90.69 1155.18 98.23 C 1148.79 104.51 1142.84 111.29 1135.75 116.81 C 1128.84 122.18 1122.33 128.02 1115.71 133.72 C 1109.62 139.07 1102.62 143.23 1096.39 148.41 C 1081.76 160.04 1065.93 169.99 1050.44 180.40 C 1046.57 182.91 1043.06 186.06 1038.77 187.85 C 1035.31 189.21 1032.01 186.58 1029.41 184.60 C 1025.34 181.03 1021.27 177.43 1017.42 173.63 C 996.50 151.88 983.41 124.05 972.87 96.11 C 967.18 81.89 963.41 67.03 959.75 52.18 C 955.29 35.03 953.05 17.43 950.00 0.00 Z" />
</g>
<g id="#010003ff">
</g>
<g id="#402254ff">
<path fill="#402254" opacity="1.00" d=" M 0.00 31.12 C 2.44 23.92 4.59 16.18 10.12 10.64 C 15.49 12.42 20.54 14.99 25.72 17.23 C 46.04 26.36 66.61 35.04 86.06 45.96 C 107.17 57.56 127.35 70.86 146.31 85.72 C 154.51 91.74 161.68 98.99 169.38 105.60 C 181.92 116.07 192.26 128.77 203.16 140.85 C 215.20 155.78 226.30 171.52 235.73 188.25 C 245.77 205.58 253.35 224.20 259.88 243.10 C 262.31 250.04 264.24 257.15 265.65 264.37 C 268.76 278.06 271.24 291.95 271.99 306.00 C 272.38 315.66 272.09 325.33 272.23 335.00 C 272.55 356.77 268.51 378.31 263.37 399.38 C 258.07 420.43 250.54 440.87 241.59 460.63 C 228.72 487.07 214.36 512.95 196.32 536.25 C 186.26 549.48 176.70 563.16 165.39 575.39 C 163.66 577.11 161.76 579.41 159.00 578.75 C 147.23 577.25 135.62 574.60 124.05 571.96 C 106.27 568.02 88.66 563.25 71.37 557.53 C 53.06 550.48 34.47 544.01 16.98 535.07 C 11.24 532.11 5.90 528.42 0.00 525.79 L 0.00 31.12 Z" />
</g>
<g id="#421164ff">
<path fill="#421164" opacity="1.00" d=" M 653.91 244.17 C 667.98 243.00 681.83 239.14 696.04 239.95 C 706.62 239.30 716.88 242.18 726.98 244.90 C 735.56 246.61 743.37 250.66 751.60 253.47 C 759.87 256.43 766.45 262.43 773.55 267.39 C 779.61 271.56 784.56 277.04 789.77 282.18 C 791.68 284.11 793.68 285.99 795.25 288.23 C 793.74 289.37 792.13 290.43 790.89 291.87 C 789.66 294.00 789.88 296.63 788.82 298.83 C 787.50 300.16 785.86 301.12 784.56 302.45 C 782.60 304.99 781.80 308.25 779.78 310.73 C 778.15 310.49 776.60 309.92 775.04 309.48 C 776.74 312.13 778.24 314.92 779.06 317.98 C 781.27 326.11 787.83 332.63 788.03 341.37 C 779.68 324.43 770.43 306.44 753.84 296.18 C 746.13 291.60 739.49 285.18 730.97 282.05 C 723.83 279.36 716.37 277.64 708.98 275.82 C 690.31 272.15 670.55 273.76 652.85 280.79 C 647.17 282.94 641.36 284.94 636.20 288.20 C 629.38 292.53 623.35 297.96 617.67 303.66 C 613.18 308.17 608.24 312.35 604.84 317.80 C 602.60 321.33 600.62 325.04 597.94 328.27 C 598.59 324.37 599.68 320.50 599.75 316.53 C 594.00 314.03 587.88 312.56 581.77 311.31 C 579.36 310.87 577.72 308.93 575.71 307.73 C 573.40 307.87 571.93 309.94 570.85 311.76 C 568.73 315.33 566.47 318.82 564.01 322.17 C 564.55 316.73 567.94 312.21 570.62 307.63 C 579.22 294.64 587.77 280.70 601.40 272.39 C 609.33 267.78 615.70 260.87 624.05 256.95 C 628.99 254.55 634.10 252.52 638.99 250.00 C 643.80 247.71 648.45 244.58 653.91 244.17 Z" />
</g>
<g id="#331247ff">
<path fill="#331247" opacity="1.00" d=" M 652.85 280.79 C 670.55 273.76 690.31 272.15 708.98 275.82 C 716.37 277.64 723.83 279.36 730.97 282.05 C 739.49 285.18 746.13 291.60 753.84 296.18 C 770.43 306.44 779.68 324.43 788.03 341.37 C 790.23 349.44 792.41 357.57 793.10 365.95 C 794.04 374.06 793.49 382.24 793.84 390.39 C 790.61 410.88 781.73 430.13 769.52 446.80 C 768.39 447.77 767.27 448.74 766.19 449.75 C 756.85 458.76 746.72 467.32 734.77 472.64 C 732.62 473.50 730.50 474.43 728.42 475.42 C 707.40 483.57 683.81 484.75 662.07 478.84 C 656.34 477.19 650.90 474.74 645.32 472.68 C 634.15 467.63 624.14 460.24 615.41 451.69 C 607.08 442.80 599.90 432.76 595.01 421.57 C 590.32 411.32 587.63 400.30 585.81 389.22 C 585.86 376.23 586.06 363.04 589.48 350.41 C 591.72 342.84 594.36 335.33 597.94 328.27 C 600.62 325.04 602.60 321.33 604.84 317.80 C 608.24 312.35 613.18 308.17 617.67 303.66 C 623.35 297.96 629.38 292.53 636.20 288.20 C 641.36 284.94 647.17 282.94 652.85 280.79 M 701.67 308.58 C 686.39 314.11 671.13 319.70 655.88 325.31 C 658.87 331.62 665.56 334.90 670.58 339.40 C 672.77 341.50 676.08 343.51 675.70 347.01 C 675.79 355.31 675.84 363.63 675.08 371.91 C 674.90 375.38 674.63 379.01 675.99 382.31 C 678.07 380.57 679.58 378.30 681.16 376.14 C 688.18 366.38 694.07 355.87 700.90 345.98 C 709.17 333.81 716.48 321.01 724.98 308.99 C 727.16 305.90 729.20 302.63 730.27 298.97 C 720.31 300.71 711.04 304.95 701.67 308.58 M 699.98 377.99 C 695.80 384.48 691.54 390.90 687.25 397.31 C 685.37 400.46 682.61 403.32 681.97 407.04 C 677.08 412.02 673.84 418.28 669.98 424.03 C 662.88 434.93 655.28 445.54 648.88 456.87 C 657.22 455.29 664.96 451.72 672.92 448.90 C 690.73 441.75 709.00 435.73 726.74 428.40 C 725.63 426.83 724.54 425.25 723.09 423.99 C 717.02 418.96 710.76 414.14 704.73 409.06 C 704.55 403.73 705.27 398.39 704.90 393.06 C 705.07 385.95 706.35 378.86 705.82 371.75 C 703.43 373.37 701.57 375.62 699.98 377.99 Z" />
</g>
<g id="#511d6dff">
<path fill="#511d6d" opacity="1.00" d=" M 795.25 288.23 L 795.76 288.21 C 807.08 302.10 816.56 317.74 822.05 334.88 C 823.84 341.55 826.60 348.27 826.05 355.29 C 824.63 352.40 823.62 349.35 822.35 346.41 C 819.77 346.63 817.76 349.21 815.59 350.59 C 813.05 352.96 809.62 353.58 806.43 354.54 C 806.12 357.02 807.06 359.65 806.01 362.03 C 803.97 366.51 800.04 369.96 798.76 374.81 C 797.27 380.05 796.19 385.43 793.84 390.39 C 793.49 382.24 794.04 374.06 793.10 365.95 C 792.41 357.57 790.23 349.44 788.03 341.37 C 787.83 332.63 781.27 326.11 779.06 317.98 C 778.24 314.92 776.74 312.13 775.04 309.48 C 776.60 309.92 778.15 310.49 779.78 310.73 C 781.80 308.25 782.60 304.99 784.56 302.45 C 785.86 301.12 787.50 300.16 788.82 298.83 C 789.88 296.63 789.66 294.00 790.89 291.87 C 792.13 290.43 793.74 289.37 795.25 288.23 Z" />
</g>
<g id="#4f1c71ff">
<path fill="#4f1c71" opacity="1.00" d=" M 701.67 308.58 C 711.04 304.95 720.31 300.71 730.27 298.97 C 729.20 302.63 727.16 305.90 724.98 308.99 C 716.48 321.01 709.17 333.81 700.90 345.98 C 694.07 355.87 688.18 366.38 681.16 376.14 C 679.58 378.30 678.07 380.57 675.99 382.31 C 674.63 379.01 674.90 375.38 675.08 371.91 C 675.84 363.63 675.79 355.31 675.70 347.01 C 676.08 343.51 672.77 341.50 670.58 339.40 C 665.56 334.90 658.87 331.62 655.88 325.31 C 671.13 319.70 686.39 314.11 701.67 308.58 Z" />
</g>
<g id="#552075ff">
<path fill="#552075" opacity="1.00" d=" M 570.85 311.76 C 571.93 309.94 573.40 307.87 575.71 307.73 C 577.72 308.93 579.36 310.87 581.77 311.31 C 587.88 312.56 594.00 314.03 599.75 316.53 C 599.68 320.50 598.59 324.37 597.94 328.27 C 594.36 335.33 591.72 342.84 589.48 350.41 C 586.06 363.04 585.86 376.23 585.81 389.22 C 584.79 384.47 584.17 379.65 583.69 374.82 C 582.55 376.80 581.61 378.90 580.47 380.89 C 579.87 379.37 579.37 377.83 578.73 376.34 C 572.56 380.57 566.80 385.37 560.77 389.78 C 559.18 391.23 556.97 390.60 555.05 390.72 C 554.44 396.70 555.63 402.69 555.23 408.68 C 553.92 407.05 553.64 404.95 553.21 402.99 C 550.51 389.50 551.34 375.67 552.39 362.06 C 554.13 348.30 557.28 334.41 564.01 322.17 C 566.47 318.82 568.73 315.33 570.85 311.76 Z" />
</g>
<g id="#5c277bff">
<path fill="#5c277b" opacity="1.00" d=" M 815.59 350.59 C 817.76 349.21 819.77 346.63 822.35 346.41 C 823.62 349.35 824.63 352.40 826.05 355.29 C 828.43 361.89 828.01 369.05 828.31 375.95 C 828.88 396.91 824.57 418.02 815.35 436.88 C 814.81 434.54 813.93 432.29 813.54 429.93 C 814.13 428.26 815.17 426.80 815.90 425.19 C 813.36 424.77 811.24 426.19 809.16 427.38 C 807.30 425.73 805.92 423.60 803.96 422.08 C 798.87 422.06 793.62 422.40 788.72 423.81 C 782.82 427.46 781.41 434.81 778.47 440.60 C 776.84 444.16 772.91 445.52 769.52 446.80 C 781.73 430.13 790.61 410.88 793.84 390.39 C 796.19 385.43 797.27 380.05 798.76 374.81 C 800.04 369.96 803.97 366.51 806.01 362.03 C 807.06 359.65 806.12 357.02 806.43 354.54 C 809.62 353.58 813.05 352.96 815.59 350.59 Z" />
</g>
<g id="#633188ff">
<path fill="#633188" opacity="1.00" d=" M 699.98 377.99 C 701.57 375.62 703.43 373.37 705.82 371.75 C 706.35 378.86 705.07 385.95 704.90 393.06 C 703.09 392.38 701.29 391.68 699.44 391.16 C 699.64 394.09 700.09 397.03 699.75 399.98 C 696.63 399.73 693.87 398.18 690.92 397.34 C 687.95 400.58 685.69 404.52 681.97 407.04 C 682.61 403.32 685.37 400.46 687.25 397.31 C 691.54 390.90 695.80 384.48 699.98 377.99 Z" />
</g>
<g id="#672e89ff">
<path fill="#672e89" opacity="1.00" d=" M 580.47 380.89 C 581.61 378.90 582.55 376.80 583.69 374.82 C 584.17 379.65 584.79 384.47 585.81 389.22 C 587.63 400.30 590.32 411.32 595.01 421.57 C 591.12 421.56 586.93 422.18 584.16 425.20 C 578.24 430.99 573.85 438.33 566.69 442.81 C 561.65 431.93 556.33 420.77 555.23 408.68 C 555.63 402.69 554.44 396.70 555.05 390.72 C 556.97 390.60 559.18 391.23 560.77 389.78 C 566.80 385.37 572.56 380.57 578.73 376.34 C 579.37 377.83 579.87 379.37 580.47 380.89 Z" />
</g>
<g id="#713997ff">
<path fill="#713997" opacity="1.00" d=" M 699.44 391.16 C 701.29 391.68 703.09 392.38 704.90 393.06 C 705.27 398.39 704.55 403.73 704.73 409.06 C 710.76 414.14 717.02 418.96 723.09 423.99 C 724.54 425.25 725.63 426.83 726.74 428.40 C 709.00 435.73 690.73 441.75 672.92 448.90 C 664.96 451.72 657.22 455.29 648.88 456.87 C 655.28 445.54 662.88 434.93 669.98 424.03 C 673.84 418.28 677.08 412.02 681.97 407.04 C 685.69 404.52 687.95 400.58 690.92 397.34 C 693.87 398.18 696.63 399.73 699.75 399.98 C 700.09 397.03 699.64 394.09 699.44 391.16 Z" />
</g>
<g id="#76399bff">
<path fill="#76399b" opacity="1.00" d=" M 584.16 425.20 C 586.93 422.18 591.12 421.56 595.01 421.57 C 599.90 432.76 607.08 442.80 615.41 451.69 C 608.77 450.74 601.95 451.60 595.58 453.62 C 587.35 456.64 577.87 456.89 571.07 463.06 C 571.57 460.04 572.65 457.13 572.94 454.08 C 571.82 449.86 568.94 446.46 566.69 442.81 C 573.85 438.33 578.24 430.99 584.16 425.20 Z" />
<path fill="#76399b" opacity="1.00" d=" M 734.77 472.64 C 746.72 467.32 756.85 458.76 766.19 449.75 C 770.77 450.23 774.58 453.07 778.98 454.18 C 784.45 455.57 789.76 457.91 794.30 461.29 C 793.80 463.66 794.01 466.06 795.17 468.23 C 787.01 477.58 777.77 486.03 767.61 493.15 C 767.71 490.89 768.44 488.19 766.56 486.44 C 763.67 483.28 760.04 480.93 756.58 478.48 C 753.28 476.31 749.97 473.79 745.97 473.18 C 742.26 472.68 738.50 472.68 734.77 472.64 Z" />
</g>
<g id="#6d3491ff">
<path fill="#6d3491" opacity="1.00" d=" M 788.72 423.81 C 793.62 422.40 798.87 422.06 803.96 422.08 C 805.92 423.60 807.30 425.73 809.16 427.38 C 811.24 426.19 813.36 424.77 815.90 425.19 C 815.17 426.80 814.13 428.26 813.54 429.93 C 813.93 432.29 814.81 434.54 815.35 436.88 C 810.03 448.15 803.04 458.61 795.17 468.23 C 794.01 466.06 793.80 463.66 794.30 461.29 C 789.76 457.91 784.45 455.57 778.98 454.18 C 774.58 453.07 770.77 450.23 766.19 449.75 C 767.27 448.74 768.39 447.77 769.52 446.80 C 772.91 445.52 776.84 444.16 778.47 440.60 C 781.41 434.81 782.82 427.46 788.72 423.81 Z" />
</g>
<g id="#853fabff">
<path fill="#853fab" opacity="1.00" d=" M 595.58 453.62 C 601.95 451.60 608.77 450.74 615.41 451.69 C 624.14 460.24 634.15 467.63 645.32 472.68 C 641.71 472.72 638.02 472.59 634.62 471.27 C 630.73 469.92 627.52 467.20 623.73 465.66 C 617.15 467.01 610.82 469.76 604.01 470.06 C 597.45 470.80 591.54 466.95 585.05 466.94 C 580.89 466.92 576.37 466.50 572.58 468.54 C 571.14 471.56 570.45 475.08 567.65 477.23 C 568.25 472.42 569.22 467.56 571.07 463.06 C 577.87 456.89 587.35 456.64 595.58 453.62 Z" />
</g>
<g id="#9242bbff">
<path fill="#9242bb" opacity="1.00" d=" M 604.01 470.06 C 610.82 469.76 617.15 467.01 623.73 465.66 C 627.52 467.20 630.73 469.92 634.62 471.27 C 638.02 472.59 641.71 472.72 645.32 472.68 C 650.90 474.74 656.34 477.19 662.07 478.84 C 683.81 484.75 707.40 483.57 728.42 475.42 C 729.53 476.05 730.67 476.74 731.53 477.76 C 728.98 479.37 726.25 480.68 723.78 482.41 C 727.04 484.71 731.53 484.80 734.29 487.95 C 729.02 487.98 724.34 485.33 719.30 484.28 C 717.54 485.48 716.19 487.16 714.92 488.84 C 716.87 488.87 718.84 488.70 720.80 488.83 C 723.86 492.58 722.08 497.43 722.30 501.75 C 724.94 502.95 727.89 503.00 730.74 503.14 C 730.04 503.62 729.36 504.13 728.70 504.67 C 728.77 505.83 729.07 506.96 729.21 508.12 C 728.09 509.87 726.31 511.10 724.80 512.49 C 702.48 519.08 678.43 518.23 655.95 512.83 C 643.15 509.91 631.38 503.85 619.88 497.70 C 598.71 502.83 578.42 511.45 557.18 516.57 C 560.42 503.41 563.35 490.06 567.65 477.23 C 570.45 475.08 571.14 471.56 572.58 468.54 C 576.37 466.50 580.89 466.92 585.05 466.94 C 591.54 466.95 597.45 470.80 604.01 470.06 Z" />
</g>
<g id="#843fadff">
<path fill="#843fad" opacity="1.00" d=" M 728.42 475.42 C 730.50 474.43 732.62 473.50 734.77 472.64 C 738.50 472.68 742.26 472.68 745.97 473.18 C 749.97 473.79 753.28 476.31 756.58 478.48 C 760.04 480.93 763.67 483.28 766.56 486.44 C 768.44 488.19 767.71 490.89 767.61 493.15 C 754.73 502.18 740.06 508.76 724.80 512.49 C 726.31 511.10 728.09 509.87 729.21 508.12 C 729.07 506.96 728.77 505.83 728.70 504.67 C 729.36 504.13 730.04 503.62 730.74 503.14 C 727.89 503.00 724.94 502.95 722.30 501.75 C 722.08 497.43 723.86 492.58 720.80 488.83 C 718.84 488.70 716.87 488.87 714.92 488.84 C 716.19 487.16 717.54 485.48 719.30 484.28 C 724.34 485.33 729.02 487.98 734.29 487.95 C 731.53 484.80 727.04 484.71 723.78 482.41 C 726.25 480.68 728.98 479.37 731.53 477.76 C 730.67 476.74 729.53 476.05 728.42 475.42 Z" />
</g>
<g id="#432354ff">
<path fill="#432354" opacity="1.00" d=" M 1247.85 496.70 C 1271.64 492.42 1295.86 491.40 1319.99 491.83 C 1342.10 491.17 1364.10 493.79 1386.05 496.10 C 1398.40 497.72 1410.56 500.72 1423.00 501.73 L 1423.00 708.52 C 1420.78 714.14 1419.68 720.23 1416.48 725.46 C 1412.84 732.37 1407.35 738.02 1401.43 743.00 L 995.98 743.00 C 1002.47 718.77 1009.65 694.52 1020.90 672.00 C 1035.27 640.04 1054.23 609.88 1078.58 584.55 C 1084.71 577.34 1092.21 571.51 1098.84 564.78 C 1112.49 553.19 1126.53 541.76 1142.53 533.53 C 1158.02 524.62 1174.29 517.07 1191.12 511.04 C 1209.50 504.41 1228.65 500.16 1247.85 496.70 Z" />
</g>
<g id="#361948ff">
<path fill="#361948" opacity="1.00" d=" M 259.58 635.63 C 264.82 631.24 268.99 625.49 275.07 622.15 C 277.81 623.92 280.00 626.39 282.31 628.68 C 291.61 637.64 295.54 650.28 301.68 661.32 C 307.95 672.06 308.88 684.72 311.56 696.62 C 312.55 700.74 314.23 704.66 315.18 708.80 C 317.43 720.15 319.77 731.48 321.01 743.00 L 176.93 743.00 C 178.31 737.62 180.86 732.62 184.27 728.25 C 189.51 721.39 193.63 713.77 199.12 707.10 C 203.79 701.37 207.41 694.87 212.19 689.22 C 217.57 682.87 221.76 675.55 227.76 669.73 C 232.93 664.79 236.01 658.13 241.25 653.24 C 247.36 647.36 253.02 641.01 259.58 635.63 Z" />
</g>
<g id="#010002ff">
</g>
<g id="#000002ff">
</g>
</svg>
