<?xml version="1.0" encoding="UTF-8" ?>
<!DOCTYPE svg PUBLIC "-//W3C//DTD SVG 1.1//EN" "http://www.w3.org/Graphics/SVG/1.1/DTD/svg11.dtd">
<svg width="1024pt" height="535pt" viewBox="0 0 1024 535" version="1.1" xmlns="http://www.w3.org/2000/svg">
<g id="#d9cde5ff">
<path fill="#d9cde5" opacity="1.00" d=" M 0.00 0.00 L 683.96 0.00 C 686.24 13.52 688.04 27.15 691.41 40.47 C 695.62 56.46 700.95 72.18 707.67 87.28 C 715.78 103.82 725.00 120.74 739.92 132.12 C 742.01 133.62 744.02 136.12 746.83 135.90 C 750.22 134.51 753.01 132.05 756.06 130.07 C 763.31 124.92 771.23 120.79 778.25 115.30 C 789.65 106.72 801.46 98.63 812.08 89.05 C 822.87 79.92 833.18 70.21 842.79 59.83 C 848.67 54.66 853.16 48.20 858.64 42.64 C 866.05 33.64 872.93 24.23 879.80 14.82 C 883.14 10.11 886.11 5.15 888.72 0.00 L 1024.00 0.00 L 1024.00 361.17 C 1014.55 360.52 1005.39 357.88 995.99 356.91 C 982.04 355.43 968.06 353.67 954.01 353.98 C 943.35 354.16 932.65 353.49 922.04 354.80 C 913.21 355.21 904.43 356.30 895.70 357.65 C 889.42 359.05 883.19 360.71 876.85 361.86 C 860.76 365.88 845.24 372.06 830.42 379.47 C 823.00 384.13 814.99 387.81 807.89 392.98 C 798.14 400.42 788.69 408.27 779.80 416.74 C 769.64 426.82 761.56 438.69 753.16 450.21 C 739.80 470.95 729.30 493.53 722.16 517.15 C 719.98 522.98 718.52 529.05 716.71 535.00 L 0.00 535.00 L 0.00 378.64 C 11.68 385.68 24.05 391.54 36.85 396.22 C 45.06 399.71 53.57 402.35 62.11 404.88 C 71.93 408.43 82.31 409.88 92.36 412.61 C 98.68 414.37 105.23 415.03 111.62 416.50 C 113.44 416.68 115.63 417.69 117.16 416.22 C 119.25 414.64 120.92 412.59 122.57 410.58 C 142.12 386.37 160.70 360.95 173.42 332.39 C 179.76 320.20 183.72 306.99 187.96 293.97 C 193.46 274.50 196.74 254.28 196.21 234.01 C 196.52 219.75 194.82 205.48 191.45 191.63 C 187.39 171.49 179.23 152.40 169.48 134.40 C 164.62 127.01 160.06 119.41 154.80 112.29 C 150.07 106.64 145.97 100.48 140.77 95.23 C 134.18 86.88 126.39 79.57 118.28 72.72 C 112.09 66.16 104.52 61.21 97.55 55.55 C 67.98 33.75 34.52 17.73 0.00 5.46 L 0.00 0.00 M 399.40 202.43 C 374.69 230.36 366.42 271.51 377.91 306.92 L 377.73 307.18 C 380.26 314.87 383.19 322.49 387.55 329.36 C 388.63 331.43 390.55 333.54 389.65 336.05 C 386.00 351.91 381.40 367.55 377.81 383.43 C 394.26 378.45 410.59 373.10 426.92 367.73 C 459.82 388.37 504.04 388.10 537.22 368.22 C 560.56 354.90 578.53 332.60 586.76 307.04 C 587.18 305.44 587.96 303.81 587.77 302.13 C 592.67 285.51 592.40 267.70 589.09 250.80 C 585.94 235.93 579.38 221.88 570.65 209.47 C 549.80 180.44 513.88 162.47 478.06 164.51 C 448.01 165.14 418.79 179.58 399.40 202.43 Z" />
<path fill="#d9cde5" opacity="1.00" d=" M 440.04 203.01 C 455.73 193.42 474.83 189.52 493.04 192.06 C 509.75 194.07 525.48 201.88 537.88 213.16 C 550.38 225.18 559.72 240.80 562.81 257.99 C 566.42 275.60 564.01 294.45 555.99 310.55 C 548.68 324.86 537.65 337.53 523.53 345.42 C 509.99 353.78 493.80 357.12 478.01 356.43 C 460.06 355.74 442.70 348.43 428.91 337.06 C 414.07 324.41 404.38 306.35 400.91 287.26 C 399.62 275.36 399.36 262.98 403.04 251.45 C 408.75 231.44 422.23 213.77 440.04 203.01 M 454.86 233.14 C 455.48 234.14 455.97 235.28 456.97 236.00 C 461.83 239.90 466.56 243.97 471.41 247.89 C 471.39 257.94 470.35 267.96 470.61 278.02 C 471.78 277.44 472.73 276.60 473.44 275.51 C 485.96 255.81 499.31 236.65 511.99 217.05 C 513.44 214.86 515.20 212.79 515.86 210.17 C 495.52 217.80 475.37 225.97 454.86 233.14 M 492.67 270.67 C 485.66 281.72 478.41 292.61 471.22 303.53 L 470.98 303.55 C 463.95 314.07 457.14 324.74 450.16 335.29 C 449.41 335.83 449.00 338.28 450.72 337.17 C 471.11 329.77 491.36 321.91 511.70 314.37 C 511.69 314.14 511.66 313.68 511.65 313.45 C 506.23 308.44 500.21 304.09 494.65 299.25 C 494.03 297.29 494.66 295.02 494.19 292.97 C 494.38 284.73 495.31 276.51 495.12 268.27 C 494.12 268.89 493.30 269.69 492.67 270.67 Z" />
</g>
<g id="#e6e0eeff">
<path fill="#e6e0ee" opacity="1.00" d=" M 683.96 0.00 L 888.72 0.00 C 886.11 5.15 883.14 10.11 879.80 14.82 C 872.93 24.23 866.05 33.64 858.64 42.64 C 853.16 48.20 848.67 54.66 842.79 59.83 C 833.18 70.21 822.87 79.92 812.08 89.05 C 801.46 98.63 789.65 106.72 778.25 115.30 C 771.23 120.79 763.31 124.92 756.06 130.07 C 753.01 132.05 750.22 134.51 746.83 135.90 C 744.02 136.12 742.01 133.62 739.92 132.12 C 725.00 120.74 715.78 103.82 707.67 87.28 C 700.95 72.18 695.62 56.46 691.41 40.47 C 688.04 27.15 686.24 13.52 683.96 0.00 Z" />
<path fill="#e6e0ee" opacity="1.00" d=" M 0.00 5.46 C 34.52 17.73 67.98 33.75 97.55 55.55 C 104.52 61.21 112.09 66.16 118.28 72.72 C 126.39 79.57 134.18 86.88 140.77 95.23 C 145.97 100.48 150.07 106.64 154.80 112.29 C 160.06 119.41 164.62 127.01 169.48 134.40 C 179.23 152.40 187.39 171.49 191.45 191.63 C 194.82 205.48 196.52 219.75 196.21 234.01 C 196.74 254.28 193.46 274.50 187.96 293.97 C 183.72 306.99 179.76 320.20 173.42 332.39 C 160.70 360.95 142.12 386.37 122.57 410.58 C 120.92 412.59 119.25 414.64 117.16 416.22 C 115.63 417.69 113.44 416.68 111.62 416.50 C 105.23 415.03 98.68 414.37 92.36 412.61 C 82.31 409.88 71.93 408.43 62.11 404.88 C 53.57 402.35 45.06 399.71 36.85 396.22 C 24.05 391.54 11.68 385.68 0.00 378.64 L 0.00 5.46 Z" />
<path fill="#e6e0ee" opacity="1.00" d=" M 922.04 354.80 C 932.65 353.49 943.35 354.16 954.01 353.98 C 968.06 353.67 982.04 355.43 995.99 356.91 C 1005.39 357.88 1014.55 360.52 1024.00 361.17 L 1024.00 535.00 L 716.71 535.00 C 718.52 529.05 719.98 522.98 722.16 517.15 C 729.30 493.53 739.80 470.95 753.16 450.21 C 761.56 438.69 769.64 426.82 779.80 416.74 C 788.69 408.27 798.14 400.42 807.89 392.98 C 814.99 387.81 823.00 384.13 830.42 379.47 C 845.24 372.06 860.76 365.88 876.85 361.86 C 883.19 360.71 889.42 359.05 895.70 357.65 C 904.43 356.30 913.21 355.21 922.04 354.80 Z" />
</g>
<g id="#4c196bff">
<path fill="#4c196b" opacity="1.00" d=" M 399.40 202.43 C 418.79 179.58 448.01 165.14 478.06 164.51 C 513.88 162.47 549.80 180.44 570.65 209.47 C 579.38 221.88 585.94 235.93 589.09 250.80 C 592.40 267.70 592.67 285.51 587.77 302.13 C 586.32 299.58 586.61 296.62 586.08 293.84 C 584.00 291.11 580.20 293.09 577.74 294.17 C 575.92 293.88 574.11 293.57 572.31 293.27 C 573.18 295.87 574.33 298.42 576.50 300.22 C 576.35 302.38 577.55 305.28 575.27 306.68 C 571.92 307.17 569.06 305.05 566.25 303.60 C 564.48 304.03 562.72 304.48 560.97 304.93 C 559.75 307.17 559.60 311.65 555.99 310.55 C 564.01 294.45 566.42 275.60 562.81 257.99 C 559.72 240.80 550.38 225.18 537.88 213.16 C 525.48 201.88 509.75 194.07 493.04 192.06 C 474.83 189.52 455.73 193.42 440.04 203.01 C 422.23 213.77 408.75 231.44 403.04 251.45 C 399.36 262.98 399.62 275.36 400.91 287.26 C 399.70 286.73 398.52 286.22 397.33 285.70 C 393.24 289.22 387.15 287.79 383.17 291.42 C 381.12 293.13 379.38 295.38 378.60 297.96 C 378.34 300.31 379.02 302.64 379.23 304.98 C 378.90 305.46 378.24 306.43 377.91 306.92 C 366.42 271.51 374.69 230.36 399.40 202.43 Z" />
<path fill="#4c196b" opacity="1.00" d=" M 454.86 233.14 C 475.37 225.97 495.52 217.80 515.86 210.17 C 515.20 212.79 513.44 214.86 511.99 217.05 C 499.31 236.65 485.96 255.81 473.44 275.51 C 472.73 276.60 471.78 277.44 470.61 278.02 C 470.35 267.96 471.39 257.94 471.41 247.89 C 466.56 243.97 461.83 239.90 456.97 236.00 C 455.97 235.28 455.48 234.14 454.86 233.14 Z" />
<path fill="#4c196b" opacity="1.00" d=" M 492.67 270.67 C 493.30 269.69 494.12 268.89 495.12 268.27 C 495.31 276.51 494.38 284.73 494.19 292.97 C 493.28 290.87 492.47 288.71 491.20 286.81 C 488.64 286.32 484.84 285.56 483.55 288.52 C 480.49 293.73 476.95 298.61 473.27 303.40 C 472.76 303.43 471.74 303.50 471.22 303.53 C 478.41 292.61 485.66 281.72 492.67 270.67 Z" />
</g>
<g id="#7f3aa5ff">
<path fill="#7f3aa5" opacity="1.00" d=" M 397.33 285.70 C 398.52 286.22 399.70 286.73 400.91 287.26 C 404.38 306.35 414.07 324.41 428.91 337.06 C 442.70 348.43 460.06 355.74 478.01 356.43 C 493.80 357.12 509.99 353.78 523.53 345.42 C 537.65 337.53 548.68 324.86 555.99 310.55 C 559.60 311.65 559.75 307.17 560.97 304.93 C 562.72 304.48 564.48 304.03 566.25 303.60 C 569.06 305.05 571.92 307.17 575.27 306.68 C 577.55 305.28 576.35 302.38 576.50 300.22 C 574.33 298.42 573.18 295.87 572.31 293.27 C 574.11 293.57 575.92 293.88 577.74 294.17 C 580.20 293.09 584.00 291.11 586.08 293.84 C 586.61 296.62 586.32 299.58 587.77 302.13 C 587.96 303.81 587.18 305.44 586.76 307.04 C 578.53 332.60 560.56 354.90 537.22 368.22 C 504.04 388.10 459.82 388.37 426.92 367.73 C 410.59 373.10 394.26 378.45 377.81 383.43 C 381.40 367.55 386.00 351.91 389.65 336.05 C 390.55 333.54 388.63 331.43 387.55 329.36 C 383.19 322.49 380.26 314.87 377.73 307.18 L 377.91 306.92 C 378.24 306.43 378.90 305.46 379.23 304.98 C 379.02 302.64 378.34 300.31 378.60 297.96 C 379.38 295.38 381.12 293.13 383.17 291.42 C 387.15 287.79 393.24 289.22 397.33 285.70 Z" />
<path fill="#7f3aa5" opacity="1.00" d=" M 483.55 288.52 C 484.84 285.56 488.64 286.32 491.20 286.81 C 492.47 288.71 493.28 290.87 494.19 292.97 C 494.66 295.02 494.03 297.29 494.65 299.25 C 500.21 304.09 506.23 308.44 511.65 313.45 C 511.66 313.68 511.69 314.14 511.70 314.37 C 491.36 321.91 471.11 329.77 450.72 337.17 C 449.00 338.28 449.41 335.83 450.16 335.29 C 457.14 324.74 463.95 314.07 470.98 303.55 L 471.22 303.53 C 471.74 303.50 472.76 303.43 473.27 303.40 C 476.95 298.61 480.49 293.73 483.55 288.52 Z" />
</g>
</svg>
